<svg width="26" height="22" viewBox="0 0 26 22" fill="none" xmlns="http://www.w3.org/2000/svg">
<g clip-path="url(#clip0_3073_191)">
<path d="M23.1927 12.9473L25.224 4.00981C25.3706 3.3645 24.8801 2.75001 24.2184 2.75001H7.34099L6.94713 0.824572C6.84899 0.344653 6.42669 0 5.93681 0H1.53125C0.9617 0 0.5 0.4617 0.5 1.03125V1.71875C0.5 2.28831 0.9617 2.75001 1.53125 2.75001H4.53405L7.55252 17.507C6.83039 17.9223 6.34376 18.701 6.34376 19.5938C6.34376 20.9227 7.42108 22.0001 8.75002 22.0001C10.079 22.0001 11.1563 20.9227 11.1563 19.5938C11.1563 18.9203 10.8793 18.3118 10.4334 17.875H19.4417C18.9958 18.3118 18.7188 18.9203 18.7188 19.5938C18.7188 20.9227 19.7961 22.0001 21.1251 22.0001C22.454 22.0001 23.5313 20.9227 23.5313 19.5938C23.5313 18.6411 22.9775 17.8178 22.1744 17.428L22.4115 16.3848C22.5581 15.7395 22.0676 15.125 21.4059 15.125H9.87224L9.59101 13.75H22.1871C22.6686 13.75 23.086 13.4169 23.1927 12.9473Z" fill="#0F5176"/>
</g>
<defs>
<clipPath id="clip0_3073_191">
<rect width="24.7501" height="22.0001" fill="white" transform="translate(0.5)"/>
</clipPath>
</defs>
</svg>
