<svg width="15" height="13" viewBox="0 0 15 13" fill="none" xmlns="http://www.w3.org/2000/svg">
<path d="M14.8125 6.04102L13.125 7.30664V10.8223C13.1235 11.3191 12.9254 11.7951 12.5741 12.1464C12.2228 12.4977 11.7468 12.6957 11.25 12.6973H3.75C3.2532 12.6957 2.77718 12.4977 2.42588 12.1464C2.07459 11.7951 1.87655 11.3191 1.875 10.8223V7.30664L0.187502 6.04102C0.0880457 5.96642 0.0222946 5.85538 0.00471309 5.73231C-0.0128684 5.60924 0.0191598 5.48422 0.0937519 5.38477C0.168344 5.28531 0.27939 5.21956 0.402461 5.20198C0.525531 5.1844 0.650546 5.21642 0.750002 5.29102L1.875 6.13477V5.19727C1.875 4.94863 1.97377 4.71017 2.14959 4.53435C2.3254 4.35854 2.56386 4.25977 2.8125 4.25977H12.1875C12.4361 4.25977 12.6746 4.35854 12.8504 4.53435C13.0262 4.71017 13.125 4.94863 13.125 5.19727V6.13477L14.25 5.29102C14.3495 5.21642 14.4745 5.1844 14.5975 5.20198C14.7206 5.21956 14.8317 5.28531 14.9063 5.38477C14.9808 5.48422 15.0129 5.60924 14.9953 5.73231C14.9777 5.85538 14.912 5.96642 14.8125 6.04102ZM9.375 3.32227C9.49932 3.32227 9.61855 3.27288 9.70646 3.18497C9.79437 3.09706 9.84375 2.97784 9.84375 2.85352V0.978516C9.84375 0.854195 9.79437 0.734967 9.70646 0.647059C9.61855 0.559152 9.49932 0.509766 9.375 0.509766C9.25068 0.509766 9.13145 0.559152 9.04354 0.647059C8.95564 0.734967 8.90625 0.854195 8.90625 0.978516V2.85352C8.90625 2.97784 8.95564 3.09706 9.04354 3.18497C9.13145 3.27288 9.25068 3.32227 9.375 3.32227ZM7.5 3.32227C7.62432 3.32227 7.74355 3.27288 7.83146 3.18497C7.91937 3.09706 7.96875 2.97784 7.96875 2.85352V0.978516C7.96875 0.854195 7.91937 0.734967 7.83146 0.647059C7.74355 0.559152 7.62432 0.509766 7.5 0.509766C7.37568 0.509766 7.25645 0.559152 7.16855 0.647059C7.08064 0.734967 7.03125 0.854195 7.03125 0.978516V2.85352C7.03125 2.97784 7.08064 3.09706 7.16855 3.18497C7.25645 3.27288 7.37568 3.32227 7.5 3.32227ZM5.625 3.32227C5.74932 3.32227 5.86855 3.27288 5.95646 3.18497C6.04437 3.09706 6.09375 2.97784 6.09375 2.85352V0.978516C6.09375 0.854195 6.04437 0.734967 5.95646 0.647059C5.86855 0.559152 5.74932 0.509766 5.625 0.509766C5.50068 0.509766 5.38145 0.559152 5.29355 0.647059C5.20564 0.734967 5.15625 0.854195 5.15625 0.978516V2.85352C5.15625 2.97784 5.20564 3.09706 5.29355 3.18497C5.38145 3.27288 5.50068 3.32227 5.625 3.32227Z" fill="#0F5176"/>
</svg>
