<svg width="50" height="50" viewBox="0 0 50 50" fill="none" xmlns="http://www.w3.org/2000/svg">
<circle cx="25" cy="25" r="25" fill="white"/>
<g clip-path="url(#clip0_3073_188)">
<path d="M35.1927 26.9473L37.224 18.0098C37.3706 17.3645 36.8801 16.75 36.2184 16.75H19.341L18.9471 14.8246C18.849 14.3447 18.4267 14 17.9368 14H13.5313C12.9617 14 12.5 14.4617 12.5 15.0313V15.7188C12.5 16.2883 12.9617 16.75 13.5313 16.75H16.534L19.5525 31.507C18.8304 31.9223 18.3438 32.701 18.3438 33.5938C18.3438 34.9227 19.4211 36.0001 20.75 36.0001C22.079 36.0001 23.1563 34.9227 23.1563 33.5938C23.1563 32.9203 22.8793 32.3118 22.4334 31.875H31.4417C30.9958 32.3118 30.7188 32.9203 30.7188 33.5938C30.7188 34.9227 31.7961 36.0001 33.1251 36.0001C34.454 36.0001 35.5313 34.9227 35.5313 33.5938C35.5313 32.6411 34.9775 31.8178 34.1744 31.428L34.4115 30.3848C34.5581 29.7395 34.0676 29.125 33.4059 29.125H21.8722L21.591 27.75H34.1871C34.6686 27.75 35.086 27.4169 35.1927 26.9473Z" fill="#0F5176"/>
</g>
<ellipse cx="42.5" cy="7.61675" rx="7.5" ry="7.61675" fill="#0F5176"/>
<path d="M43.5569 7.44897C43.8426 7.45886 44.0812 7.53965 44.2728 7.69134C44.4676 7.84302 44.6154 8.04582 44.716 8.29973C44.8167 8.55035 44.867 8.83064 44.867 9.1406C44.867 9.5528 44.7842 9.93036 44.6186 10.2733C44.4563 10.6163 44.203 10.8899 43.8588 11.0944C43.5146 11.2988 43.0747 11.4011 42.5389 11.4011C42.0843 11.4011 41.7044 11.3417 41.3992 11.223C41.094 11.101 40.8505 10.9312 40.6686 10.7135C40.4868 10.4926 40.3553 10.2354 40.2741 9.94191C40.1929 9.64842 40.1523 9.33186 40.1523 8.99222C40.1523 8.98892 40.1523 8.98562 40.1523 8.98232C40.1523 8.97903 40.1523 8.97573 40.1523 8.97243H41.4382C41.4382 8.97573 41.4382 8.97903 41.4382 8.98232C41.4382 8.98562 41.4382 8.98892 41.4382 8.99222C41.4382 9.35165 41.4836 9.63029 41.5745 9.82814C41.6655 10.026 41.7937 10.1645 41.9593 10.2436C42.1249 10.3228 42.323 10.3623 42.5535 10.3623C42.862 10.3623 43.1088 10.2634 43.2938 10.0656C43.4822 9.86441 43.5763 9.54455 43.5763 9.10598C43.5763 8.93781 43.5585 8.78447 43.5228 8.64597C43.487 8.50418 43.4253 8.38382 43.3377 8.28489C43.2533 8.18267 43.138 8.10353 42.9919 8.04747C42.8458 7.99141 42.6607 7.96338 42.4366 7.96338H42.1834V7.01369H42.4366C42.6574 7.01369 42.8409 6.98402 42.987 6.92466C43.1331 6.86531 43.2484 6.78616 43.3328 6.68724C43.4205 6.58502 43.4822 6.4696 43.5179 6.341C43.5569 6.21239 43.5763 6.07884 43.5763 5.94035C43.5763 5.59081 43.4838 5.3369 43.2987 5.17862C43.1169 5.02033 42.875 4.94119 42.573 4.94119C42.2386 4.94119 41.9658 5.03353 41.7548 5.21819C41.5437 5.40285 41.4382 5.7359 41.4382 6.21734H40.1523C40.1523 5.89418 40.1978 5.59246 40.2887 5.31217C40.3829 5.03188 40.5258 4.78621 40.7173 4.57517C40.9089 4.36083 41.1557 4.1943 41.4576 4.07559C41.7629 3.95358 42.1265 3.89258 42.5487 3.89258C43.0877 3.89258 43.526 3.98491 43.8637 4.16957C44.2046 4.35423 44.4563 4.59825 44.6186 4.90162C44.7842 5.2017 44.867 5.52486 44.867 5.8711C44.867 6.14809 44.8167 6.40365 44.716 6.63778C44.6154 6.8719 44.4676 7.06316 44.2728 7.21155C44.0812 7.35664 43.8426 7.43578 43.5569 7.44897Z" fill="white"/>
<defs>
<clipPath id="clip0_3073_188">
<rect width="24.7501" height="22.0001" fill="white" transform="translate(12.5 14)"/>
</clipPath>
</defs>
</svg>
