<svg width="39" height="46" viewBox="0 0 39 46" fill="none" xmlns="http://www.w3.org/2000/svg">
<path d="M0 0H39V30.0069C39 31.6564 38.1865 33.1998 36.8256 34.1319L22.3256 44.0644C20.6225 45.2311 18.3775 45.2311 16.6744 44.0644L2.17436 34.1319C0.813525 33.1998 0 31.6564 0 30.0069V0Z" fill="black"/>
<g clip-path="url(#clip0_3074_648)">
<path d="M22.6456 18.825C22.6618 18.8947 22.656 18.9678 22.6291 19.0342C22.6021 19.1005 22.5552 19.1569 22.4949 19.1955C22.4346 19.2342 22.3638 19.2532 22.2923 19.25C22.2207 19.2468 22.1519 19.2215 22.0953 19.1777C22.0387 19.1338 21.9971 19.0735 21.9761 19.005C21.9552 18.9365 21.9559 18.8632 21.9783 18.7952C22.0007 18.7271 22.0436 18.6677 22.1011 18.625C22.1586 18.5823 22.2279 18.5585 22.2995 18.5568C22.3793 18.5547 22.4573 18.5803 22.5204 18.6292C22.5834 18.6781 22.6277 18.7472 22.6456 18.825Z" fill="white"/>
<path d="M18.7525 11.1543C17.0662 11.1585 15.4156 11.6406 13.9922 12.5447C12.5687 13.4489 11.4307 14.738 10.71 16.2627C9.9894 17.7873 9.71568 19.485 9.92061 21.1589C10.1256 22.8328 10.8007 24.4143 11.8679 25.72C12.2008 25.2387 12.5748 24.7353 12.9738 24.2378C12.9497 24.2444 12.9252 24.2493 12.9004 24.2525C12.7854 24.2679 12.6684 24.2491 12.5642 24.1982C12.4599 24.1473 12.373 24.0667 12.3145 23.9666C12.2559 23.8664 12.2283 23.7512 12.2351 23.6354C12.2419 23.5196 12.2828 23.4084 12.3527 23.3158C12.4225 23.2232 12.5182 23.1533 12.6277 23.115C12.7372 23.0766 12.8556 23.0716 12.9679 23.1004C13.0803 23.1292 13.1816 23.1906 13.2592 23.2769C13.3367 23.3631 13.387 23.4704 13.4037 23.5852C13.4092 23.6266 13.4107 23.6685 13.4081 23.7102C14.4685 22.4609 15.7236 21.3814 16.7758 20.7516C16.7825 20.7516 17.7311 20.2945 17.8421 20.2732C17.8987 20.2615 17.0955 20.2923 16.7905 20.2997C16.345 20.3095 15.8993 20.2948 15.4554 20.2556C14.4707 20.1329 11.9061 19.3157 12.8144 18.9012C13.7697 18.4603 16.2776 18.4287 16.9294 18.4052C17.2491 18.3942 18.1448 18.5081 18.0956 18.4691C17.7906 18.2244 15.628 18.3126 14.2142 17.2368C13.8409 16.9531 13.9291 16.4821 14.4986 16.474C16.537 16.4431 18.0258 16.4196 19.8518 17.2015C20.3493 17.4521 20.4302 17.5028 20.7226 17.4668C22.2481 17.2779 23.4775 17.8658 24.1881 19.0328C24.4725 19.4994 24.3284 19.6545 24.0125 20.1637C23.584 20.853 21.9836 21.0455 21.6265 20.9897C21.6213 21.0619 21.6308 21.1344 21.6544 21.2028C22.2422 21.1499 23.4738 21.1977 24.0271 21.3321C24.2476 21.3865 24.5621 21.5056 24.5415 21.9266C24.5246 22.3198 24.0852 22.5197 23.9228 22.5145C20.8615 22.4197 16.8802 24.3517 13.7946 26.3814C13.5874 26.5173 13.3155 26.6944 13.0143 26.8884C14.1112 27.8162 15.416 28.4654 16.8176 28.7807C18.2193 29.096 19.6764 29.0681 21.065 28.6994C22.4535 28.3307 23.7325 27.6321 24.7932 26.663C25.8538 25.694 26.6648 24.483 27.1571 23.1333C27.6493 21.7835 27.8083 20.3348 27.6206 18.9104C27.4329 17.486 26.9039 16.1279 26.0788 14.9518C25.2536 13.7757 24.1566 12.8163 22.8811 12.1551C21.6055 11.4939 20.1892 11.1506 18.7525 11.1543Z" fill="white"/>
</g>
<path d="M28.6953 13.7168L29.52 14.0311C29.7639 14.1224 29.9756 14.2858 30.1256 14.5012C30.2774 14.719 30.3583 14.979 30.3562 15.2456L30.3562 15.2532L30.3561 15.2532C30.3521 15.5114 30.27 15.7615 30.1215 15.9713L30.1215 15.9713C29.9736 16.1802 29.7671 16.3391 29.5295 16.4291L28.6956 16.7467L28.3765 17.5681L28.6953 13.7168ZM28.6953 13.7168L28.3756 12.8932C28.3755 12.8931 28.3755 12.893 28.3755 12.893C28.3754 12.8928 28.3754 12.8927 28.3753 12.8925C28.2811 12.6497 28.1154 12.4425 27.9017 12.297C27.688 12.1515 27.4358 12.0742 27.1784 12.0742C26.9209 12.0742 26.6687 12.1515 26.455 12.297C26.2414 12.4424 26.0757 12.6496 25.9815 12.8924C25.9814 12.8925 25.9814 12.8925 25.9814 12.8926C25.9813 12.8928 25.9812 12.893 25.9812 12.8931L25.6611 13.717L24.8266 14.0349C24.8265 14.035 24.8264 14.035 24.8262 14.0351C24.8262 14.0351 24.8261 14.0351 24.826 14.0351C24.5851 14.1268 24.3764 14.2893 24.2283 14.5027L24.2283 14.5027C24.08 14.7164 24 14.9706 24 15.2319C24 15.4931 24.08 15.7474 24.2283 15.9611C24.3763 16.1744 24.5851 16.3368 24.8259 16.4286C24.8261 16.4287 24.8264 16.4288 24.8266 16.4288L25.6614 16.747L25.9802 17.5681C25.9805 17.5688 25.9808 17.5695 25.981 17.5702C26.0752 17.8139 26.2414 18.0218 26.4559 18.1675C26.6695 18.3125 26.9214 18.3894 27.1784 18.3891L28.6953 13.7168Z" fill="white" stroke="black" stroke-width="2"/>
<path d="M30.8238 14.0223C30.854 14.0429 30.8898 14.0539 30.9265 14.0539C30.9632 14.0539 30.999 14.0429 31.0292 14.0223C31.0595 14.0017 31.0827 13.9725 31.0959 13.9386L31.3549 13.2716C31.3595 13.2598 31.3665 13.2491 31.3755 13.2402C31.3845 13.2313 31.3952 13.2244 31.4071 13.2199L32.0805 12.9633C32.1148 12.9502 32.1442 12.9272 32.1649 12.8973C32.1857 12.8673 32.1968 12.8319 32.1968 12.7955C32.1968 12.7592 32.1857 12.7238 32.1649 12.6938C32.1442 12.6639 32.1148 12.6408 32.0805 12.6278L31.4071 12.3712C31.3952 12.3667 31.3845 12.3597 31.3755 12.3508C31.3665 12.3419 31.3595 12.3312 31.3549 12.3195L31.0959 11.6525C31.0814 11.6151 31.0547 11.5835 31.02 11.5629C30.9854 11.5422 30.9448 11.5336 30.9046 11.5384C30.8712 11.543 30.8397 11.5564 30.8134 11.5774C30.7871 11.5983 30.767 11.6258 30.7552 11.6572L30.4981 12.3195C30.4935 12.3312 30.4865 12.3419 30.4775 12.3508C30.4686 12.3597 30.4578 12.3667 30.4459 12.3712L29.7725 12.6278C29.7383 12.6408 29.7089 12.6639 29.6881 12.6938C29.6674 12.7238 29.6562 12.7592 29.6562 12.7955C29.6562 12.8319 29.6674 12.8673 29.6881 12.8973C29.7089 12.9272 29.7383 12.9502 29.7725 12.9633L30.4459 13.2199C30.4578 13.2244 30.4686 13.2313 30.4775 13.2402C30.4865 13.2491 30.4935 13.2598 30.4981 13.2716L30.7572 13.9386C30.7703 13.9725 30.7936 14.0017 30.8238 14.0223Z" fill="white"/>
<path d="M30.8238 14.0223C30.854 14.0429 30.8898 14.0539 30.9265 14.0539C30.9632 14.0539 30.999 14.0429 31.0292 14.0223C31.0595 14.0017 31.0827 13.9725 31.0959 13.9386L31.3549 13.2716C31.3595 13.2598 31.3665 13.2491 31.3755 13.2402C31.3845 13.2313 31.3952 13.2244 31.4071 13.2199L32.0805 12.9633C32.1148 12.9502 32.1442 12.9272 32.1649 12.8973C32.1857 12.8673 32.1968 12.8319 32.1968 12.7955C32.1968 12.7592 32.1857 12.7238 32.1649 12.6938C32.1442 12.6639 32.1148 12.6408 32.0805 12.6278L31.4071 12.3712C31.3952 12.3667 31.3845 12.3597 31.3755 12.3508C31.3665 12.3419 31.3595 12.3312 31.3549 12.3195L31.0959 11.6525C31.0814 11.6151 31.0547 11.5835 31.02 11.5629C30.9854 11.5422 30.9448 11.5336 30.9046 11.5384C30.8712 11.543 30.8397 11.5564 30.8134 11.5774C30.7871 11.5983 30.767 11.6258 30.7552 11.6572L30.4981 12.3195C30.4935 12.3312 30.4865 12.3419 30.4775 12.3508C30.4686 12.3597 30.4578 12.3667 30.4459 12.3712L29.7725 12.6278C29.7383 12.6408 29.7089 12.6639 29.6881 12.6938C29.6674 12.7238 29.6562 12.7592 29.6562 12.7955C29.6562 12.8319 29.6674 12.8673 29.6881 12.8973C29.7089 12.9272 29.7383 12.9502 29.7725 12.9633L30.4459 13.2199C30.4578 13.2244 30.4686 13.2313 30.4775 13.2402C30.4865 13.2491 30.4935 13.2598 30.4981 13.2716L30.7572 13.9386C30.7703 13.9725 30.7936 14.0017 30.8238 14.0223Z" stroke="black"/>
<path d="M26.2868 11.9484C26.3145 11.9673 26.3474 11.9774 26.381 11.9774C26.4146 11.9774 26.4474 11.9673 26.4752 11.9484C26.5029 11.9296 26.5242 11.9029 26.5363 11.8718L26.7275 11.3792C26.7317 11.3684 26.7381 11.3587 26.7463 11.3505C26.7545 11.3424 26.7644 11.336 26.7753 11.3319L27.2725 11.1425C27.3039 11.1305 27.3309 11.1094 27.3499 11.082C27.369 11.0545 27.3792 11.022 27.3792 10.9887C27.3792 10.9554 27.369 10.9229 27.3499 10.8954C27.3309 10.8679 27.3039 10.8468 27.2725 10.8349L26.7753 10.6454C26.7644 10.6413 26.7545 10.635 26.7463 10.6268C26.7381 10.6187 26.7317 10.6089 26.7275 10.5981L26.5363 10.1056C26.5229 10.0713 26.4985 10.0425 26.4667 10.0235C26.4349 10.0046 26.3977 9.99677 26.3609 10.0012C26.3303 10.0053 26.3013 10.0176 26.2772 10.0367C26.2531 10.0559 26.2347 10.0812 26.224 10.11L26.0345 10.5981C26.0303 10.6089 26.0239 10.6187 26.0157 10.6268C26.0074 10.635 25.9976 10.6413 25.9867 10.6454L25.4894 10.8349C25.458 10.8468 25.4311 10.8679 25.412 10.8954C25.393 10.9229 25.3828 10.9554 25.3828 10.9887C25.3828 11.022 25.393 11.0545 25.412 11.082C25.4311 11.1094 25.458 11.1305 25.4894 11.1425L25.9867 11.3319C25.9976 11.336 26.0074 11.3424 26.0157 11.3505C26.0239 11.3587 26.0303 11.3684 26.0345 11.3792L26.2257 11.8718C26.2378 11.9029 26.2591 11.9296 26.2868 11.9484Z" fill="white"/>
<path d="M26.2868 11.9484C26.3145 11.9673 26.3474 11.9774 26.381 11.9774C26.4146 11.9774 26.4474 11.9673 26.4752 11.9484C26.5029 11.9296 26.5242 11.9029 26.5363 11.8718L26.7275 11.3792C26.7317 11.3684 26.7381 11.3587 26.7463 11.3505C26.7545 11.3424 26.7644 11.336 26.7753 11.3319L27.2725 11.1425C27.3039 11.1305 27.3309 11.1094 27.3499 11.082C27.369 11.0545 27.3792 11.022 27.3792 10.9887C27.3792 10.9554 27.369 10.9229 27.3499 10.8954C27.3309 10.8679 27.3039 10.8468 27.2725 10.8349L26.7753 10.6454C26.7644 10.6413 26.7545 10.635 26.7463 10.6268C26.7381 10.6187 26.7317 10.6089 26.7275 10.5981L26.5363 10.1056C26.5229 10.0713 26.4985 10.0425 26.4667 10.0235C26.4349 10.0046 26.3977 9.99677 26.3609 10.0012C26.3303 10.0053 26.3013 10.0176 26.2772 10.0367C26.2531 10.0559 26.2347 10.0812 26.224 10.11L26.0345 10.5981C26.0303 10.6089 26.0239 10.6187 26.0157 10.6268C26.0074 10.635 25.9976 10.6413 25.9867 10.6454L25.4894 10.8349C25.458 10.8468 25.4311 10.8679 25.412 10.8954C25.393 10.9229 25.3828 10.9554 25.3828 10.9887C25.3828 11.022 25.393 11.0545 25.412 11.082C25.4311 11.1094 25.458 11.1305 25.4894 11.1425L25.9867 11.3319C25.9976 11.336 26.0074 11.3424 26.0157 11.3505C26.0239 11.3587 26.0303 11.3684 26.0345 11.3792L26.2257 11.8718C26.2378 11.9029 26.2591 11.9296 26.2868 11.9484Z" stroke="black"/>
<defs>
<clipPath id="clip0_3074_648">
<rect width="17.8454" height="17.8454" fill="white" transform="translate(9.85156 11.1543)"/>
</clipPath>
</defs>
</svg>
