<svg width="13" height="17" viewBox="0 0 13 17" fill="none" xmlns="http://www.w3.org/2000/svg">
<path d="M6.5 0.828125C3.0875 0.828125 0 3.42146 0 7.43227C0 9.99339 1.99063 13.0055 5.96375 16.4767C6.2725 16.7425 6.73563 16.7425 7.04437 16.4767C11.0094 13.0055 13 9.99339 13 7.43227C13 3.42146 9.9125 0.828125 6.5 0.828125ZM6.5 8.88196C5.60625 8.88196 4.875 8.15711 4.875 7.27119C4.875 6.38527 5.60625 5.66043 6.5 5.66043C7.39375 5.66043 8.125 6.38527 8.125 7.27119C8.125 8.15711 7.39375 8.88196 6.5 8.88196Z" fill="#82CFFB"/>
</svg>
