<svg width="13" height="15" viewBox="0 0 13 15" fill="none" xmlns="http://www.w3.org/2000/svg">
<path d="M6.11875 6.53558L3.6875 8.96495L1.25625 6.53558C0.77567 6.05477 0.44844 5.44226 0.315934 4.7755C0.183428 4.10873 0.251596 3.41765 0.51182 2.78962C0.772044 2.16159 1.21264 1.62483 1.7779 1.24718C2.34316 0.869534 3.0077 0.667969 3.6875 0.667969C4.36731 0.667969 5.03185 0.869534 5.59711 1.24718C6.16237 1.62483 6.60296 2.16159 6.86318 2.78962C7.12341 3.41765 7.19157 4.10873 7.05907 4.7755C6.92656 5.44226 6.59933 6.05477 6.11875 6.53558V6.53558ZM3.6875 5.35433C4.01902 5.35433 4.33696 5.22263 4.57138 4.98821C4.80581 4.75379 4.9375 4.43585 4.9375 4.10433C4.9375 3.77281 4.80581 3.45486 4.57138 3.22044C4.33696 2.98602 4.01902 2.85433 3.6875 2.85433C3.35598 2.85433 3.03804 2.98602 2.80362 3.22044C2.5692 3.45486 2.4375 3.77281 2.4375 4.10433C2.4375 4.43585 2.5692 4.75379 2.80362 4.98821C3.03804 5.22263 3.35598 5.35433 3.6875 5.35433V5.35433ZM11.7438 12.1606L9.3125 14.5906L6.88125 12.16C6.40067 11.6791 6.07344 11.0666 5.94093 10.3999C5.80843 9.73311 5.8766 9.04202 6.13682 8.414C6.39704 7.78597 6.83764 7.2492 7.4029 6.87155C7.96816 6.49391 8.6327 6.29234 9.3125 6.29234C9.99231 6.29234 10.6568 6.49391 11.2221 6.87155C11.7874 7.2492 12.228 7.78597 12.4882 8.414C12.7484 9.04202 12.8166 9.73311 12.6841 10.3999C12.5516 11.0666 12.2243 11.6791 11.7438 12.16V12.1606ZM9.3125 10.9793C9.64402 10.9793 9.96196 10.8476 10.1964 10.6132C10.4308 10.3788 10.5625 10.0608 10.5625 9.72933C10.5625 9.39781 10.4308 9.07986 10.1964 8.84544C9.96196 8.61102 9.64402 8.47933 9.3125 8.47933C8.98098 8.47933 8.66304 8.61102 8.42862 8.84544C8.1942 9.07986 8.0625 9.39781 8.0625 9.72933C8.0625 10.0608 8.1942 10.3788 8.42862 10.6132C8.66304 10.8476 8.98098 10.9793 9.3125 10.9793Z" fill="#0F5176"/>
</svg>
