<svg width="41" height="41" viewBox="0 0 41 41" fill="none" xmlns="http://www.w3.org/2000/svg">
<rect width="41" height="41" fill="#E5E5E5"/>
<g clip-path="url(#clip0_0_1)">
<rect width="1440" height="4297" transform="translate(-732 -3661)" fill="white"/>
<rect x="-732" y="-24.4531" width="1440" height="662.56" fill="#002646"/>
<circle opacity="0.1" cx="20.2656" cy="20.5469" r="20" fill="white"/>
<g clip-path="url(#clip1_0_1)">
<path d="M24.6658 15.2773H22.6943L22.3909 18.1809H24.3624L24.6658 15.2773Z" fill="white"/>
<path d="M27.9528 15.2383H25.7299L25.3618 18.7627C25.3337 19.0313 25.1073 19.2355 24.8373 19.2355H21.8054C21.4915 19.2355 21.2483 18.9624 21.2812 18.6534L21.6381 15.2383H19.2439C18.577 15.2383 18.0163 15.7382 17.94 16.4013L17.0185 24.3919C16.929 25.1687 17.5363 25.8555 18.3225 25.8555H27.0317C27.6987 25.8555 28.2591 25.3559 28.3357 24.6929L29.2568 16.7022C29.3467 15.9226 28.7368 15.2383 27.9528 15.2383V15.2383Z" fill="white"/>
<path d="M15.4838 22.2734H11.793C11.5017 22.2734 11.2656 22.5095 11.2656 22.8008C11.2656 23.092 11.5017 23.3281 11.793 23.3281H15.4838C15.775 23.3281 16.0111 23.092 16.0111 22.8008C16.0111 22.5095 15.775 22.2734 15.4838 22.2734Z" fill="white"/>
<path d="M15.4838 20.0234H12.3899C12.0987 20.0234 11.8625 20.2595 11.8625 20.5508C11.8625 20.842 12.0987 21.0781 12.3899 21.0781H15.4838C15.775 21.0781 16.0111 20.842 16.0111 20.5508C16.0111 20.2595 15.7751 20.0234 15.4838 20.0234Z" fill="white"/>
<path d="M15.4837 17.7734H12.9524C12.6612 17.7734 12.425 18.0095 12.425 18.3008C12.425 18.592 12.6612 18.8281 12.9524 18.8281H15.4837C15.775 18.8281 16.0111 18.592 16.0111 18.3008C16.0111 18.0095 15.775 17.7734 15.4837 17.7734Z" fill="white"/>
</g>
</g>
<defs>
<clipPath id="clip0_0_1">
<rect width="1440" height="4297" fill="white" transform="translate(-732 -3661)"/>
</clipPath>
<clipPath id="clip1_0_1">
<rect width="18" height="18" fill="white" transform="translate(11.2656 11.5469)"/>
</clipPath>
</defs>
</svg>
