<svg width="31" height="31" viewBox="0 0 31 31" fill="none" xmlns="http://www.w3.org/2000/svg">
<g clip-path="url(#clip0_3073_183)">
<path d="M21.5835 12.941C21.6108 13.0587 21.6011 13.182 21.5556 13.294C21.51 13.4059 21.431 13.501 21.3292 13.5662C21.2275 13.6314 21.108 13.6636 20.9873 13.6582C20.8666 13.6528 20.7505 13.6101 20.655 13.5361C20.5594 13.4621 20.4892 13.3603 20.4538 13.2447C20.4185 13.1292 20.4198 13.0055 20.4575 12.8907C20.4953 12.7759 20.5676 12.6756 20.6647 12.6036C20.7617 12.5316 20.8787 12.4914 20.9995 12.4885C21.1341 12.485 21.2657 12.5282 21.3721 12.6107C21.4786 12.6931 21.5532 12.8098 21.5835 12.941Z" fill="white"/>
<path d="M15.0136 5.00202e-05C12.1683 0.00708716 9.38331 0.82051 6.9815 2.346C4.57969 3.87148 2.65949 6.04654 1.44356 8.61896C0.227627 11.1914 -0.234221 14.0558 0.111568 16.88C0.457357 19.7042 1.59662 22.3726 3.39724 24.5756C3.95891 23.7635 4.59 22.9142 5.26326 22.0748C5.22255 22.0859 5.18112 22.0942 5.13927 22.0996C4.94529 22.1257 4.74792 22.0938 4.57202 22.008C4.39612 21.9222 4.24954 21.7862 4.15075 21.6172C4.05195 21.4483 4.00535 21.2539 4.01681 21.0585C4.02828 20.8631 4.09729 20.6755 4.21517 20.5192C4.33305 20.3629 4.49451 20.2451 4.67925 20.1804C4.86398 20.1157 5.06372 20.1071 5.25332 20.1557C5.44291 20.2043 5.61389 20.3079 5.74473 20.4535C5.87557 20.5991 5.96041 20.7801 5.98859 20.9738C5.99785 21.0437 6.00034 21.1142 5.99602 21.1846C7.78517 19.0768 9.90288 17.2554 11.6784 16.1928C11.6895 16.1928 13.2902 15.4216 13.4774 15.3857C13.5729 15.3658 12.2177 15.4179 11.7032 15.4303C10.9514 15.447 10.1993 15.4222 9.45032 15.3559C7.78889 15.1489 3.46172 13.7701 4.9942 13.0708C6.60604 12.3269 10.8377 12.2736 11.9375 12.2339C12.4769 12.2153 13.9883 12.4075 13.9052 12.3418C13.3907 11.9289 9.74169 12.0777 7.35617 10.2625C6.72631 9.78392 6.8751 8.98916 7.836 8.97552C11.2754 8.92344 13.7874 8.88377 16.8685 10.203C17.7079 10.6258 17.8443 10.7113 18.3378 10.6506C20.9117 10.3319 22.9861 11.3238 24.185 13.2928C24.6649 14.0801 24.4218 14.3417 23.8887 15.2009C23.1658 16.3639 20.4654 16.6888 19.8628 16.5946C19.8541 16.7164 19.8702 16.8387 19.9099 16.9541C20.9018 16.8649 22.9799 16.9454 23.9135 17.1723C24.2854 17.2641 24.8161 17.465 24.7814 18.1754C24.7529 18.8387 24.0114 19.176 23.7374 19.1673C18.5721 19.0074 11.8544 22.267 6.6482 25.6915C6.29855 25.9209 5.8398 26.2197 5.33145 26.5471C7.18234 28.1125 9.3839 29.2077 11.7489 29.7397C14.1139 30.2717 16.5724 30.2247 18.9154 29.6026C21.2583 28.9805 23.4164 27.8019 25.206 26.1668C26.9957 24.5317 28.364 22.4886 29.1946 20.2112C30.0252 17.9339 30.2935 15.4896 29.9767 13.0863C29.66 10.6829 28.7675 8.39167 27.3752 6.40729C25.9828 4.42291 24.1319 2.80412 21.9797 1.6886C19.8275 0.573071 17.4378 -0.00619853 15.0136 5.00202e-05" fill="white"/>
</g>
<defs>
<clipPath id="clip0_3073_183">
<rect width="30.1104" height="30.1092" fill="white"/>
</clipPath>
</defs>
</svg>
