<svg width="24" height="24" viewBox="0 0 24 24" fill="none" xmlns="http://www.w3.org/2000/svg">
<path d="M15.8914 3.04831C16.5624 2.37718 17.4725 2.00009 18.4215 2C19.3705 1.99991 20.2807 2.37682 20.9519 3.04781C21.623 3.71881 22.0001 4.62893 22.0002 5.57796C22.0003 6.52699 21.6234 7.43718 20.9524 8.10831L20.0604 9.00031L15.0004 3.94031L15.8914 3.04831ZM13.9404 5.00031L3.94036 14.9993C3.53399 15.4058 3.24839 15.9171 3.11536 16.4763L2.02036 21.0773C1.99071 21.202 1.99349 21.3321 2.02843 21.4554C2.06337 21.5787 2.12931 21.6909 2.21996 21.7815C2.31061 21.872 2.42295 21.9379 2.54626 21.9727C2.66957 22.0075 2.79974 22.0101 2.92436 21.9803L7.52536 20.8853C8.08467 20.752 8.596 20.4661 9.00236 20.0593L10.1534 18.9093C9.91608 17.8419 9.9519 16.732 10.2575 15.6821C10.5631 14.6323 11.1286 13.6765 11.9017 12.9032C12.6747 12.1299 13.6304 11.5642 14.6802 11.2583C15.7299 10.9524 16.8399 10.9163 17.9074 11.1533L19.0004 10.0603L13.9394 5.00031H13.9404ZM13.2784 13.9763C13.353 14.2349 13.3747 14.5058 13.3421 14.7729C13.3095 15.04 13.2234 15.2978 13.0889 15.5309C12.9543 15.7639 12.7741 15.9674 12.5591 16.1292C12.344 16.2909 12.0986 16.4077 11.8374 16.4723L11.2534 16.6173C11.1598 17.2162 11.1618 17.8261 11.2594 18.4243L11.7994 18.5543C12.0629 18.6178 12.3109 18.7342 12.5281 18.8965C12.7452 19.0588 12.9272 19.2635 13.0628 19.4983C13.1984 19.733 13.2849 19.9929 13.317 20.2621C13.349 20.5313 13.326 20.8043 13.2494 21.0643L13.0624 21.6953C13.5024 22.0813 14.0024 22.3953 14.5474 22.6173L15.0404 22.0983C15.2272 21.9018 15.452 21.7453 15.7012 21.6384C15.9504 21.5315 16.2187 21.4763 16.4899 21.4763C16.761 21.4763 17.0293 21.5315 17.2785 21.6384C17.5277 21.7453 17.7525 21.9018 17.9394 22.0983L18.4384 22.6243C18.9794 22.404 19.4802 22.0955 19.9204 21.7113L19.7224 21.0253C19.6478 20.7667 19.6261 20.4957 19.6587 20.2285C19.6914 19.9614 19.7776 19.7035 19.9122 19.4705C20.0469 19.2374 20.2272 19.0339 20.4423 18.8722C20.6575 18.7105 20.9031 18.5939 21.1644 18.5293L21.7474 18.3843C21.841 17.7855 21.8389 17.1755 21.7414 16.5773L21.2014 16.4473C20.9379 16.3837 20.6901 16.2672 20.473 16.1049C20.2559 15.9426 20.0741 15.7378 19.9385 15.5031C19.803 15.2683 19.7166 15.0085 19.6846 14.7393C19.6526 14.4702 19.6757 14.1973 19.7524 13.9373L19.9384 13.3063C19.4983 12.9187 18.9968 12.6071 18.4544 12.3843L17.9614 12.9023C17.7745 13.099 17.5496 13.2556 17.3003 13.3626C17.0511 13.4696 16.7826 13.5248 16.5114 13.5248C16.2401 13.5248 15.9716 13.4696 15.7224 13.3626C15.4731 13.2556 15.2482 13.099 15.0614 12.9023L14.5634 12.3773C14.0194 12.5973 13.5194 12.9073 13.0804 13.2903L13.2784 13.9763ZM16.5004 19.0003C15.7004 19.0003 15.0504 18.3293 15.0504 17.5003C15.0504 16.6723 15.7004 16.0003 16.5004 16.0003C17.3004 16.0003 17.9504 16.6723 17.9504 17.5003C17.9504 18.3293 17.3004 19.0003 16.5004 19.0003Z" fill="#0F5176"/>
</svg>
