<svg width="48" height="80" viewBox="0 0 48 80" fill="none" xmlns="http://www.w3.org/2000/svg">
<g clip-path="url(#clip0_3073_200)">
<path d="M33.767 20.2474C33.8098 20.4316 33.7945 20.6245 33.7233 20.7997C33.6521 20.9748 33.5284 21.1236 33.3692 21.2257C33.21 21.3277 33.0231 21.3779 32.8342 21.3695C32.6453 21.361 32.4637 21.2943 32.3142 21.1785C32.1648 21.0627 32.0549 20.9034 31.9995 20.7226C31.9442 20.5418 31.9462 20.3483 32.0053 20.1687C32.0644 19.9891 32.1776 19.8322 32.3294 19.7195C32.4813 19.6068 32.6643 19.5439 32.8533 19.5394C33.0639 19.534 33.2698 19.6015 33.4363 19.7305C33.6028 19.8596 33.7196 20.0422 33.767 20.2474Z" fill="#0F5176"/>
<path d="M23.4905 7.82621e-05C19.0387 0.0110887 14.6812 1.28378 10.9233 3.67057C7.16544 6.05737 4.16107 9.46049 2.25861 13.4853C0.356148 17.5102 -0.366465 21.9918 0.17456 26.4106C0.715586 30.8294 2.49809 35.0044 5.31537 38.4514C6.19415 37.1807 7.18158 35.8519 8.23496 34.5385C8.17126 34.5559 8.10644 34.5689 8.04096 34.5773C7.73746 34.6182 7.42866 34.5683 7.15344 34.434C6.87822 34.2997 6.64889 34.087 6.49431 33.8226C6.33973 33.5582 6.26682 33.2541 6.28475 32.9483C6.30269 32.6426 6.41067 32.3491 6.5951 32.1046C6.77953 31.8601 7.03217 31.6757 7.32121 31.5745C7.61024 31.4733 7.92276 31.4599 8.2194 31.5359C8.51605 31.612 8.78357 31.7741 8.98828 32.0018C9.19299 32.2296 9.32574 32.5128 9.36981 32.8159C9.38431 32.9252 9.38821 33.0356 9.38145 33.1457C12.1808 29.8478 15.4942 26.998 18.2721 25.3355C18.2896 25.3355 20.794 24.1289 21.087 24.0726C21.2363 24.0416 19.116 24.1231 18.3109 24.1425C17.1347 24.1685 15.958 24.1297 14.7861 24.0261C12.1866 23.7021 5.41624 21.5449 7.81399 20.4508C10.3359 19.2868 16.9569 19.2034 18.6776 19.1413C19.5214 19.1122 21.8862 19.4129 21.7562 19.3101C20.9512 18.6641 15.242 18.8969 11.5096 16.0568C10.5241 15.308 10.7569 14.0645 12.2603 14.0432C17.6417 13.9617 21.572 13.8997 26.3927 15.9637C27.706 16.6252 27.9194 16.7591 28.6915 16.664C32.7188 16.1655 35.9643 17.7174 37.8402 20.798C38.5909 22.0299 38.2107 22.4392 37.3765 23.7836C36.2456 25.6032 32.0204 26.1115 31.0776 25.964C31.064 26.1546 31.0891 26.346 31.1513 26.5266C32.7032 26.387 35.9546 26.513 37.4153 26.8681C37.9973 27.0116 38.8276 27.3259 38.7733 28.4375C38.7287 29.4753 37.5686 30.003 37.1399 29.9894C29.0581 29.7391 18.5476 34.8392 10.4019 40.1973C9.8548 40.5562 9.13702 41.0237 8.34165 41.5358C11.2376 43.9851 14.6822 45.6988 18.3825 46.5311C22.0828 47.3635 25.9294 47.2899 29.5952 46.3166C33.261 45.3433 36.6375 43.4991 39.4376 40.9409C42.2377 38.3826 44.3786 35.186 45.6782 31.6228C46.9777 28.0596 47.3976 24.2352 46.9019 20.4749C46.4063 16.7147 45.0099 13.1297 42.8315 10.0249C40.6531 6.92013 37.757 4.38736 34.3897 2.642C31.0224 0.896633 27.2833 -0.0096983 23.4905 7.82621e-05" fill="#0F5176"/>
</g>
<path d="M8.89115 59.1065C10.1246 59.1065 11.0583 59.372 11.6921 59.9031C12.3431 60.4342 12.7885 61.1451 13.0284 62.0359C13.2682 62.9096 13.3881 63.8861 13.3881 64.9654V71.5438C13.3881 71.9892 13.2425 72.3661 12.9513 72.6745C12.66 72.9657 12.2917 73.1113 11.8463 73.1113C11.4009 73.1113 11.0326 72.9657 10.7413 72.6745C10.4501 72.3661 10.3045 71.9892 10.3045 71.5438V64.9654C10.3045 64.4001 10.236 63.8947 10.0989 63.4493C9.96186 62.9867 9.71346 62.6184 9.3537 62.3443C8.99394 62.0702 8.48 61.9331 7.81188 61.9331C7.16089 61.9331 6.60412 62.0702 6.14158 62.3443C5.67903 62.6184 5.32784 62.9867 5.088 63.4493C4.86529 63.8947 4.75394 64.4001 4.75394 64.9654V71.5438C4.75394 71.9892 4.60832 72.3661 4.31709 72.6745C4.02586 72.9657 3.65754 73.1113 3.21212 73.1113C2.76671 73.1113 2.39838 72.9657 2.10715 72.6745C1.81592 72.3661 1.6703 71.9892 1.6703 71.5438V55.6631C1.6703 55.2177 1.81592 54.8493 2.10715 54.5581C2.39838 54.2498 2.76671 54.0956 3.21212 54.0956C3.65754 54.0956 4.02586 54.2498 4.31709 54.5581C4.60832 54.8493 4.75394 55.2177 4.75394 55.6631V62.0359L4.36848 61.9588C4.52267 61.6676 4.73681 61.3592 5.01091 61.0338C5.28501 60.6911 5.61907 60.3742 6.01309 60.083C6.40711 59.7917 6.84396 59.5605 7.32364 59.3891C7.80331 59.2007 8.32582 59.1065 8.89115 59.1065ZM29.9354 66.2502C29.9354 67.655 29.6184 68.897 28.9846 69.9763C28.3678 71.0384 27.5284 71.8693 26.4663 72.4689C25.4213 73.0685 24.2478 73.3683 22.9458 73.3683C21.6438 73.3683 20.4617 73.0685 19.3996 72.4689C18.3546 71.8693 17.5152 71.0384 16.8813 69.9763C16.2646 68.897 15.9562 67.655 15.9562 66.2502C15.9562 64.8455 16.2646 63.612 16.8813 62.5499C17.5152 61.4706 18.3546 60.6312 19.3996 60.0316C20.4617 59.4148 21.6438 59.1065 22.9458 59.1065C24.2478 59.1065 25.4213 59.4148 26.4663 60.0316C27.5284 60.6312 28.3678 61.4706 28.9846 62.5499C29.6184 63.612 29.9354 64.8455 29.9354 66.2502ZM26.8517 66.2502C26.8517 65.3765 26.6718 64.6228 26.3121 63.9889C25.9695 63.3379 25.4984 62.8325 24.8988 62.4728C24.3163 62.113 23.6653 61.9331 22.9458 61.9331C22.2263 61.9331 21.5667 62.113 20.9671 62.4728C20.3847 62.8325 19.9135 63.3379 19.5538 63.9889C19.2112 64.6228 19.0398 65.3765 19.0398 66.2502C19.0398 67.1068 19.2112 67.8606 19.5538 68.5116C19.9135 69.1454 20.3847 69.6422 20.9671 70.002C21.5667 70.3618 22.2263 70.5416 22.9458 70.5416C23.6653 70.5416 24.3163 70.3618 24.8988 70.002C25.4984 69.6422 25.9695 69.1454 26.3121 68.5116C26.6718 67.8606 26.8517 67.1068 26.8517 66.2502ZM39.6297 59.1065C40.8289 59.1065 41.8996 59.4148 42.8419 60.0316C43.8012 60.6312 44.555 61.462 45.1032 62.5242C45.6685 63.5863 45.9512 64.8198 45.9512 66.2245C45.9512 67.6293 45.6685 68.8713 45.1032 69.9506C44.555 71.0127 43.8098 71.8522 42.8676 72.4689C41.9425 73.0685 40.8975 73.3683 39.7325 73.3683C39.0473 73.3683 38.4049 73.2569 37.8053 73.0342C37.2057 72.8115 36.6746 72.5289 36.212 72.1862C35.7666 71.8436 35.4154 71.501 35.1585 71.1584C34.9186 70.7986 34.7987 70.4988 34.7987 70.259L35.5953 69.9249V76.6832C35.5953 77.1286 35.4497 77.4969 35.1585 77.7882C34.8672 78.0965 34.4989 78.2507 34.0535 78.2507C33.6081 78.2507 33.2398 78.1051 32.9485 77.8139C32.6573 77.5226 32.5117 77.1458 32.5117 76.6832V60.931C32.5117 60.4855 32.6573 60.1172 32.9485 59.826C33.2398 59.5176 33.6081 59.3634 34.0535 59.3634C34.4989 59.3634 34.8672 59.5176 35.1585 59.826C35.4497 60.1172 35.5953 60.4855 35.5953 60.931V62.1901L35.1585 61.9588C35.1585 61.7361 35.2784 61.4706 35.5182 61.1622C35.7581 60.8367 36.0836 60.5198 36.4947 60.2114C36.9059 59.886 37.377 59.6204 37.908 59.4148C38.4563 59.2093 39.0302 59.1065 39.6297 59.1065ZM39.2443 61.9331C38.4905 61.9331 37.831 62.1216 37.2656 62.4985C36.7003 62.8754 36.2549 63.3893 35.9294 64.0403C35.621 64.6742 35.4668 65.4022 35.4668 66.2245C35.4668 67.0297 35.621 67.7664 35.9294 68.4345C36.2549 69.0855 36.7003 69.5994 37.2656 69.9763C37.831 70.3532 38.4905 70.5416 39.2443 70.5416C39.9981 70.5416 40.6491 70.3532 41.1973 69.9763C41.7626 69.5994 42.1994 69.0855 42.5078 68.4345C42.8333 67.7664 42.9961 67.0297 42.9961 66.2245C42.9961 65.4022 42.8333 64.6742 42.5078 64.0403C42.1994 63.3893 41.7626 62.8754 41.1973 62.4985C40.6491 62.1216 39.9981 61.9331 39.2443 61.9331Z" fill="#0F5176"/>
<defs>
<clipPath id="clip0_3073_200">
<rect width="47.1111" height="47.1092" fill="white"/>
</clipPath>
</defs>
</svg>
