<svg width="40" height="40" viewBox="0 0 40 40" fill="none" xmlns="http://www.w3.org/2000/svg">
<circle cx="19.9757" cy="19.9992" r="19.421" fill="#0F5176"/>
<path d="M20.1915 17.3004C18.5871 17.3004 17.2777 18.6098 17.2777 20.2142C17.2777 21.8187 18.5871 23.128 20.1915 23.128C21.796 23.128 23.1053 21.8187 23.1053 20.2142C23.1053 18.6098 21.796 17.3004 20.1915 17.3004ZM28.9307 20.2142C28.9307 19.0076 28.9417 17.8119 28.8739 16.6075C28.8062 15.2085 28.487 13.9669 27.464 12.9439C26.4388 11.9188 25.1994 11.6018 23.8005 11.534C22.5938 11.4663 21.3982 11.4772 20.1937 11.4772C18.9871 11.4772 17.7914 11.4663 16.587 11.534C15.188 11.6018 13.9464 11.9209 12.9234 12.9439C11.8983 13.9691 11.5813 15.2085 11.5135 16.6075C11.4458 17.8141 11.4567 19.0098 11.4567 20.2142C11.4567 21.4187 11.4458 22.6165 11.5135 23.821C11.5813 25.2199 11.9004 26.4615 12.9234 27.4845C13.9486 28.5097 15.188 28.8267 16.587 28.8944C17.7936 28.9622 18.9893 28.9513 20.1937 28.9513C21.4003 28.9513 22.596 28.9622 23.8005 28.8944C25.1994 28.8267 26.441 28.5075 27.464 27.4845C28.4892 26.4593 28.8062 25.2199 28.8739 23.821C28.9439 22.6165 28.9307 21.4208 28.9307 20.2142ZM20.1915 24.6975C17.7105 24.6975 15.7083 22.6952 15.7083 20.2142C15.7083 17.7332 17.7105 15.731 20.1915 15.731C22.6725 15.731 24.6748 17.7332 24.6748 20.2142C24.6748 22.6952 22.6725 24.6975 20.1915 24.6975ZM24.8584 16.5944C24.2792 16.5944 23.8114 16.1266 23.8114 15.5473C23.8114 14.9681 24.2792 14.5003 24.8584 14.5003C25.4377 14.5003 25.9055 14.9681 25.9055 15.5473C25.9056 15.6849 25.8787 15.8211 25.8261 15.9482C25.7736 16.0754 25.6964 16.1908 25.5992 16.2881C25.5019 16.3854 25.3864 16.4625 25.2593 16.515C25.1322 16.5676 24.996 16.5946 24.8584 16.5944Z" fill="#F2FAFF"/>
</svg>
