<svg width="50" height="50" viewBox="0 0 50 50" fill="none" xmlns="http://www.w3.org/2000/svg">
<g clip-path="url(#clip0_3073_173)">
<path d="M35.8378 21.4881C35.8832 21.6836 35.867 21.8883 35.7914 22.0742C35.7158 22.2601 35.5846 22.4181 35.4156 22.5263C35.2466 22.6346 35.0483 22.6879 34.8478 22.679C34.6474 22.67 34.4546 22.5992 34.296 22.4763C34.1373 22.3534 34.0207 22.1844 33.962 21.9925C33.9032 21.8006 33.9054 21.5952 33.9681 21.4046C34.0308 21.2139 34.1509 21.0474 34.3121 20.9278C34.4732 20.8082 34.6674 20.7414 34.8681 20.7366C35.0915 20.7309 35.3101 20.8026 35.4869 20.9395C35.6636 21.0765 35.7875 21.2703 35.8378 21.4881Z" fill="white"/>
<path d="M24.931 8.30612e-05C20.2062 0.0117686 15.5815 1.3625 11.5932 3.89566C7.60483 6.42881 4.41623 10.0406 2.39711 14.3123C0.377987 18.5839 -0.388937 23.3404 0.185265 28.0302C0.759466 32.7199 2.65127 37.1509 5.64131 40.8092C6.57399 39.4607 7.62196 38.0503 8.73993 36.6565C8.67233 36.6749 8.60354 36.6886 8.53404 36.6976C8.21193 36.741 7.88419 36.688 7.5921 36.5455C7.3 36.403 7.0566 36.1772 6.89254 35.8966C6.72849 35.6161 6.65111 35.2932 6.67014 34.9688C6.68918 34.6443 6.80378 34.3327 6.99952 34.0733C7.19526 33.8138 7.46339 33.618 7.77015 33.5106C8.07691 33.4033 8.40859 33.389 8.72342 33.4697C9.03826 33.5504 9.32218 33.7225 9.53945 33.9642C9.75671 34.2059 9.8976 34.5065 9.94438 34.8282C9.95976 34.9442 9.9639 35.0614 9.95673 35.1782C12.9277 31.6781 16.4443 28.6536 19.3926 26.8891C19.4111 26.8891 22.0691 25.6085 22.38 25.5488C22.5386 25.5158 20.2882 25.6023 19.4338 25.6229C18.1855 25.6506 16.9366 25.6093 15.6928 25.4994C12.9339 25.1555 5.74837 22.8661 8.29315 21.7048C10.9697 20.4695 17.9967 20.381 19.8229 20.3151C20.7185 20.2842 23.2283 20.6033 23.0904 20.4942C22.2359 19.8086 16.1766 20.0557 12.2153 17.0415C11.1694 16.2467 11.4165 14.927 13.0121 14.9043C18.7235 14.8179 22.8948 14.752 28.0111 16.9426C29.405 17.6447 29.6314 17.7868 30.4509 17.6859C34.7251 17.1568 38.1696 18.8039 40.1606 22.0734C40.9574 23.3808 40.5538 23.8152 39.6685 25.242C38.4682 27.1732 33.9839 27.7127 32.9833 27.5562C32.9689 27.7585 32.9955 27.9615 33.0615 28.1533C34.7086 28.005 38.1593 28.1389 39.7097 28.5156C40.3273 28.668 41.2085 29.0015 41.1509 30.1813C41.1035 31.2828 39.8723 31.8428 39.4173 31.8284C30.84 31.5628 19.685 36.9756 11.0397 42.6622C10.4591 43.0431 9.69731 43.5393 8.85317 44.0829C11.9267 46.6823 15.5825 48.5011 19.5097 49.3845C23.437 50.2679 27.5195 50.1897 31.41 49.1568C35.3006 48.1238 38.8842 46.1665 41.856 43.4514C44.8278 40.7363 47.0999 37.3436 48.4792 33.5619C49.8584 29.7802 50.304 25.7213 49.778 21.7305C49.252 17.7396 47.77 13.9348 45.458 10.6397C43.1459 7.34448 40.0723 4.6564 36.4985 2.80401C32.9247 0.951616 28.9564 -0.010293 24.931 8.30612e-05" fill="white"/>
</g>
<defs>
<clipPath id="clip0_3073_173">
<rect width="50" height="49.9979" fill="white"/>
</clipPath>
</defs>
</svg>
