<svg width="50" height="50" viewBox="0 0 50 50" fill="none" xmlns="http://www.w3.org/2000/svg">
<circle cx="25" cy="25" r="25" fill="#0F5176"/>
<g clip-path="url(#clip0_3074_631)">
<path d="M25.2547 15.0664C23.7594 15.0664 22.5912 15.6168 21.7501 16.7175C20.9089 17.8182 20.4884 19.2253 20.4884 20.9386C20.478 23.0674 21.1634 24.7548 22.5444 26.0009C22.721 26.167 22.7833 26.3799 22.7314 26.6395L22.3731 27.3872C22.2589 27.6364 22.0901 27.8311 21.8669 27.9713C21.6436 28.1115 21.1737 28.3114 20.4572 28.571C20.4261 28.5814 19.7693 28.7942 18.4868 29.2096C17.2044 29.625 16.5217 29.8534 16.4386 29.8949C15.5663 30.2584 14.9952 30.6374 14.7252 31.032C14.4344 31.6862 14.2891 33.3425 14.2891 36.0008H36.2203C36.2203 33.3425 36.075 31.6862 35.7842 31.032C35.5142 30.6374 34.9431 30.2584 34.0708 29.8949C33.9878 29.8534 33.305 29.625 32.0226 29.2096C30.7401 28.7942 30.0833 28.5814 30.0522 28.571C29.3357 28.3114 28.8658 28.1115 28.6425 27.9713C28.4193 27.8311 28.2505 27.6364 28.1363 27.3872L27.778 26.6395C27.7261 26.3799 27.7884 26.167 27.965 26.0009C29.3461 24.7548 30.0314 23.0674 30.021 20.9386C30.021 19.2253 29.6005 17.8182 28.7593 16.7175C27.9182 15.6168 26.75 15.0664 25.2547 15.0664Z" fill="white"/>
</g>
<defs>
<clipPath id="clip0_3074_631">
<rect width="21.9313" height="22.9282" fill="white" transform="translate(14.2871 13.0723)"/>
</clipPath>
</defs>
</svg>
