<svg width="15" height="16" viewBox="0 0 15 16" fill="none" xmlns="http://www.w3.org/2000/svg">
<g clip-path="url(#clip0_3691_589)">
<path d="M14.7915 12.973L12.6766 15.0709C12.3644 15.391 11.9507 15.4995 11.5477 15.5C9.76553 15.4466 8.08101 14.5712 6.69791 13.6723C4.42763 12.0207 2.34456 9.97275 1.03718 7.4979C0.535755 6.46011 -0.0525948 5.13597 0.00361768 3.97761C0.00863018 3.54186 0.126055 3.1142 0.432943 2.83332L2.54777 0.719561C2.98692 0.346023 3.41161 0.475173 3.69263 0.910273L5.39402 4.13655C5.57309 4.51876 5.47037 4.92829 5.20319 5.2014L4.42404 5.98015C4.37594 6.04604 4.34532 6.12104 4.34454 6.20266C4.64332 7.35919 5.54846 8.42515 6.34806 9.15874C7.14764 9.89233 8.00712 10.8862 9.12277 11.1215C9.26067 11.16 9.42958 11.1735 9.52824 11.0818L10.4346 10.16C10.7471 9.92316 11.1982 9.80741 11.5318 10.001H11.5477L14.6165 11.8128C15.067 12.0952 15.114 12.641 14.7915 12.973Z" fill="#2888DB"/>
</g>
<defs>
<clipPath id="clip0_3691_589">
<rect width="15" height="15" fill="white" transform="translate(0 0.5)"/>
</clipPath>
</defs>
</svg>
