<svg width="25" height="24" viewBox="0 0 25 24" fill="none" xmlns="http://www.w3.org/2000/svg">
<path d="M9.37516 22.9173C9.95046 22.9173 10.4168 22.451 10.4168 21.8757C10.4168 21.3004 9.95046 20.834 9.37516 20.834C8.79987 20.834 8.3335 21.3004 8.3335 21.8757C8.3335 22.451 8.79987 22.9173 9.37516 22.9173Z" stroke="#002646" stroke-width="2" stroke-linecap="round" stroke-linejoin="round"/>
<path d="M20.8334 22.9173C21.4087 22.9173 21.8751 22.451 21.8751 21.8757C21.8751 21.3004 21.4087 20.834 20.8334 20.834C20.2581 20.834 19.7917 21.3004 19.7917 21.8757C19.7917 22.451 20.2581 22.9173 20.8334 22.9173Z" stroke="#002646" stroke-width="2" stroke-linecap="round" stroke-linejoin="round"/>
<path d="M1.04175 1.04199H5.20841L8.00008 14.9899C8.09533 15.4695 8.35623 15.9003 8.73711 16.2069C9.11798 16.5135 9.59456 16.6764 10.0834 16.667H20.2084C20.6973 16.6764 21.1738 16.5135 21.5547 16.2069C21.9356 15.9003 22.1965 15.4695 22.2917 14.9899L23.9584 6.25032H6.25008" stroke="#002646" stroke-width="2" stroke-linecap="round" stroke-linejoin="round"/>
</svg>
