<svg width="40" height="41" viewBox="0 0 40 41" fill="none" xmlns="http://www.w3.org/2000/svg">
<rect width="40" height="41" fill="#E5E5E5"/>
<g clip-path="url(#clip0_0_1)">
<rect width="1440" height="4297" transform="translate(-1023 -3661)" fill="white"/>
<rect x="-1023" y="-24.4531" width="1440" height="662.56" fill="#002646"/>
<circle opacity="0.1" cx="20" cy="20.5469" r="20" fill="white"/>
<g clip-path="url(#clip1_0_1)">
<path d="M14.5428 23.5C12.1953 27.6087 12.0544 27.5827 12.3695 28.1249C12.684 28.6667 12.7881 28.5321 17.0744 28.5321C17.9502 28.5321 18.0887 27.9662 19.238 25.9548C17.3687 25.7614 15.7097 24.849 14.5428 23.5V23.5Z" fill="white"/>
<path d="M22.0633 18.0406C20.2361 18.0406 20.5808 18.2913 20.0156 16.5527C19.4505 18.2914 19.7962 18.0406 17.968 18.0406C19.4465 19.1148 19.3151 18.7094 18.75 20.4477C20.2345 19.3691 19.7937 19.3669 21.2813 20.4477C20.7164 18.71 20.5832 19.1159 22.0633 18.0406Z" fill="white"/>
<path d="M26.0085 20.4785C27.1204 16.3822 24.0246 12.5469 19.9844 12.5469C15.6781 12.5469 12.6089 16.846 14.1116 20.9474C16.1082 26.5151 24.3363 26.4275 26.0085 20.4785V20.4785ZM20.0157 20.6907C18.0647 22.1082 17.9463 22.3256 17.5794 22.0592C17.2109 21.7915 17.3847 21.6069 18.1282 19.3192C16.1828 17.9059 15.9334 17.8586 16.0737 17.4251C16.2145 16.9923 16.4436 17.1004 18.8491 17.1004C19.5923 14.8126 19.5601 14.5613 20.0157 14.5613C20.4709 14.5613 20.4387 14.8115 21.1823 17.1004C23.5879 17.1004 23.8169 16.9923 23.9577 17.4251C24.0979 17.8583 23.8494 17.9053 21.9031 19.3192C22.6493 21.6152 22.8185 21.7929 22.452 22.0592C22.0832 22.3269 21.9598 22.1032 20.0157 20.6907Z" fill="white"/>
<path d="M25.444 23.4785C24.2825 24.8325 22.627 25.7512 20.7595 25.9521L21.8913 27.9327C22.1029 28.3028 22.4991 28.5326 22.9253 28.5326C27.2067 28.5326 27.315 28.6683 27.6302 28.1254C27.9457 27.5824 27.8044 27.6092 25.444 23.4785V23.4785Z" fill="white"/>
</g>
</g>
<defs>
<clipPath id="clip0_0_1">
<rect width="1440" height="4297" fill="white" transform="translate(-1023 -3661)"/>
</clipPath>
<clipPath id="clip1_0_1">
<rect width="16" height="16" fill="white" transform="translate(12 12.5469)"/>
</clipPath>
</defs>
</svg>
