<svg width="36" height="37" viewBox="0 0 36 37" fill="none" xmlns="http://www.w3.org/2000/svg">
<rect x="0.501221" y="0.644531" width="35.4684" height="35.4684" rx="17.7342" fill="#0077B5"/>
<path d="M12.2726 13.3909C13.2995 13.3909 14.1319 12.5946 14.1319 11.6124C14.1319 10.6302 13.2995 9.83398 12.2726 9.83398C11.2458 9.83398 10.4133 10.6302 10.4133 11.6124C10.4133 12.5946 11.2458 13.3909 12.2726 13.3909Z" fill="white"/>
<path d="M15.8877 14.738V24.6048H19.0905V19.7254C19.0905 18.4379 19.3437 17.1911 21.0126 17.1911C22.6586 17.1911 22.679 18.6631 22.679 19.8067V24.6056H25.8835V19.1947C25.8835 16.5368 25.2852 14.4941 22.0374 14.4941C20.4781 14.4941 19.4329 15.3126 19.0055 16.0873H18.9621V14.738H15.8877ZM10.6685 14.738H13.8763V24.6048H10.6685V14.738Z" fill="white"/>
</svg>
