<svg width="19" height="22" viewBox="0 0 19 22" fill="none" xmlns="http://www.w3.org/2000/svg">
<path d="M4.18652 11.1797C3.73346 11.1797 3.36621 11.5469 3.36621 12C3.36621 12.4531 3.73346 12.8203 4.18652 12.8203H9.31802C9.77108 12.8203 10.1383 12.4531 10.1383 12C10.1383 11.5469 9.77108 11.1797 9.31802 11.1797H4.18652Z" fill="white"/>
<path d="M6.11434 19.8594H3.37085C2.46621 19.8594 1.73022 19.1234 1.73022 18.2188V3.78125C1.73022 2.87661 2.46621 2.14062 3.37085 2.14062H13.4561C14.3608 2.14062 15.0968 2.87661 15.0968 3.78125V8.82617C15.0968 9.27923 15.464 9.64648 15.9171 9.64648C16.3701 9.64648 16.7374 9.27923 16.7374 8.82617V3.78125C16.7374 1.97197 15.2654 0.5 13.4561 0.5H3.37085C1.56157 0.5 0.0895996 1.97197 0.0895996 3.78125V18.2188C0.0895996 20.028 1.56157 21.5 3.37085 21.5H6.11434C6.5674 21.5 6.93466 21.1327 6.93466 20.6797C6.93466 20.2266 6.5674 19.8594 6.11434 19.8594Z" fill="white"/>
<path d="M18.1904 12.377C17.2308 11.4174 15.6696 11.4174 14.7107 12.3763L10.2071 16.87C10.1114 16.9654 10.0409 17.083 10.0016 17.2122L9.02079 20.4412C8.93383 20.7275 9.00959 21.0383 9.21852 21.2525C9.37504 21.4129 9.58767 21.5 9.80575 21.5C9.87871 21.5 9.95238 21.4902 10.0247 21.4702L13.3357 20.553C13.4719 20.5153 13.5961 20.443 13.6962 20.3431L18.1904 15.8573C19.1499 14.8978 19.1499 13.3366 18.1904 12.377ZM12.6898 19.0295L11.0241 19.491L11.5116 17.8861L14.5504 14.854L15.7107 16.0143L12.6898 19.0295ZM17.0309 14.6967L16.872 14.8553L15.7118 13.6952L15.8702 13.5371C16.1901 13.2173 16.7105 13.2173 17.0303 13.5371C17.3502 13.857 17.3502 14.3774 17.0309 14.6967Z" fill="white"/>
<path d="M12.6358 6.42188H4.18652C3.73347 6.42188 3.36621 6.78913 3.36621 7.24219C3.36621 7.69525 3.73347 8.0625 4.18652 8.0625H12.6358C13.0888 8.0625 13.4561 7.69525 13.4561 7.24219C13.4561 6.78913 13.0888 6.42188 12.6358 6.42188Z" fill="white"/>
</svg>
