<svg width="122" height="45" viewBox="0 0 122 45" fill="none" xmlns="http://www.w3.org/2000/svg">
<g clip-path="url(#clip0_3691_166)">
<path d="M1.78144 0.140625H0.376953V19.5885H1.78144V0.140625Z" fill="white" stroke="white"/>
<path d="M1.78144 0.140625H0.376953V19.5885H1.78144V0.140625Z" fill="white" stroke="white"/>
<path d="M5.25244 4.40211H6.69146L6.76341 5.72975C6.76341 5.72975 7.55487 4.05273 10.7927 4.05273C14.0305 4.05273 15.8292 6.07913 15.9731 6.91764C16.117 7.75615 16.0451 19.5652 16.0451 19.5652H14.678C14.678 19.5652 14.9658 7.40677 14.678 7.05739C14.3902 6.70801 13.8146 5.17075 10.8646 5.17075C7.9837 5.17075 7.12317 6.56826 6.90731 7.3369C6.69146 8.10553 6.69146 19.5875 6.69146 19.5875H5.25244V4.40211Z" fill="white" stroke="white"/>
<path d="M5.25244 4.40211H6.69146L6.76341 5.72975C6.76341 5.72975 7.55487 4.05273 10.7927 4.05273C14.0305 4.05273 15.8292 6.07913 15.9731 6.91764C16.117 7.75615 16.0451 19.5652 16.0451 19.5652H14.678C14.678 19.5652 14.9658 7.40677 14.678 7.05739C14.3902 6.70801 13.8146 5.17075 10.8646 5.17075C7.9837 5.17075 7.12317 6.56826 6.90731 7.3369C6.69146 8.10553 6.69146 19.5875 6.69146 19.5875H5.25244V4.40211Z" fill="white" stroke="white"/>
<path d="M26.1182 6.61897C25.9973 6.54071 21.9451 2.92394 18.9577 5.54568C17.2337 7.51338 17.9014 9.50345 18.7447 10.342C19.7175 11.309 23.3927 12.3404 24.9699 14.1376C26.9385 16.3848 24.8375 18.0758 23.9252 18.4C21.9105 19.1156 18.8512 16.5749 18.8512 16.5749L17.9503 17.7208C17.9503 17.7208 20.7564 19.8702 22.6646 19.8339C24.4864 19.8003 26.5873 19.3671 26.9471 16.4323C27.232 14.0957 26.2189 12.6283 22.8804 11.2028C20.201 10.0597 19.3894 9.26866 19.3894 9.26866C19.3894 9.26866 18.1317 7.47705 20.2182 6.11587C22.3048 4.75469 25.1829 7.54972 25.1829 7.54972L26.1182 6.61897Z" fill="white" stroke="white"/>
<path d="M26.1182 6.61897C25.9973 6.54071 21.9451 2.92394 18.9577 5.54568C17.2337 7.51338 17.9014 9.50345 18.7447 10.342C19.7175 11.309 23.3927 12.3404 24.9699 14.1376C26.9385 16.3848 24.8375 18.0758 23.9252 18.4C21.9105 19.1156 18.8512 16.5749 18.8512 16.5749L17.9503 17.7208C17.9503 17.7208 20.7564 19.8702 22.6646 19.8339C24.4864 19.8003 26.5873 19.3671 26.9471 16.4323C27.232 14.0957 26.2189 12.6283 22.8804 11.2028C20.201 10.0597 19.3894 9.26866 19.3894 9.26866C19.3894 9.26866 18.1317 7.47705 20.2182 6.11587C22.3048 4.75469 25.1829 7.54972 25.1829 7.54972L26.1182 6.61897Z" fill="white" stroke="white"/>
<path d="M31.0829 0.349609L29.8597 0.81638L29.8972 5.0229H28.0984V6.38967H29.7533C29.7533 6.38967 29.7907 12.6841 29.8252 16.0269C29.8597 19.3698 34.9337 19.6661 34.9337 19.6661L34.9683 18.4474C34.9683 18.4474 31.2614 17.8269 31.1894 16.0661C31.1175 14.3052 31.1175 6.39247 31.1175 6.39247L35.0776 6.4288L35.115 5.09837L31.1203 5.06203L31.0829 0.349609Z" fill="white" stroke="white"/>
<path d="M31.0829 0.349609L29.8597 0.81638L29.8972 5.0229H28.0984V6.38967H29.7533C29.7533 6.38967 29.7907 12.6841 29.8252 16.0269C29.8597 19.3698 34.9337 19.6661 34.9337 19.6661L34.9683 18.4474C34.9683 18.4474 31.2614 17.8269 31.1894 16.0661C31.1175 14.3052 31.1175 6.39247 31.1175 6.39247L35.0776 6.4288L35.115 5.09837L31.1203 5.06203L31.0829 0.349609Z" fill="white" stroke="white"/>
<path d="M37.0547 4.71882L38.2059 4.19336L38.1339 6.88497C38.1339 6.88497 39.0693 5.73063 40.5083 4.85858C41.9473 3.98653 43.4238 4.29957 43.4238 4.29957L42.8827 5.38125C42.8827 5.38125 41.9819 5.2415 40.94 5.87038C39.8982 6.49926 38.3124 8.14274 38.3124 8.14274L38.1685 19.1132L36.9453 19.5325L37.0547 4.71882Z" fill="white" stroke="white"/>
<path d="M37.0547 4.71882L38.2059 4.19336L38.1339 6.88497C38.1339 6.88497 39.0693 5.73063 40.5083 4.85858C41.9473 3.98653 43.4238 4.29957 43.4238 4.29957L42.8827 5.38125C42.8827 5.38125 41.9819 5.2415 40.94 5.87038C39.8982 6.49926 38.3124 8.14274 38.3124 8.14274L38.1685 19.1132L36.9453 19.5325L37.0547 4.71882Z" fill="white" stroke="white"/>
<path d="M44.6097 4.47263L45.9048 4.14561C45.9048 4.14561 45.8098 15.6528 45.9998 16.3515C46.1897 17.0503 47.2949 18.4003 49.2145 18.4003C51.1342 18.4003 52.956 17.0028 53.2438 15.977C53.5316 14.9512 53.4826 4.56487 53.4826 4.56487L54.7778 4.00586L54.6828 19.426L53.4366 19.4736V17.6568C53.4366 17.6568 52.4293 19.6608 49.0706 19.6608C45.8242 19.6608 45.0701 17.3437 44.8025 16.6338C44.4658 15.745 44.6097 4.47263 44.6097 4.47263Z" fill="white" stroke="white"/>
<path d="M44.6097 4.47263L45.9048 4.14561C45.9048 4.14561 45.8098 15.6528 45.9998 16.3515C46.1897 17.0503 47.2949 18.4003 49.2145 18.4003C51.1342 18.4003 52.956 17.0028 53.2438 15.977C53.5316 14.9512 53.4826 4.56487 53.4826 4.56487L54.7778 4.00586L54.6828 19.426L53.4366 19.4736V17.6568C53.4366 17.6568 52.4293 19.6608 49.0706 19.6608C45.8242 19.6608 45.0701 17.3437 44.8025 16.6338C44.4658 15.745 44.6097 4.47263 44.6097 4.47263Z" fill="white" stroke="white"/>
<path d="M68.0369 19.3813L66.759 19.426C66.759 19.426 66.854 7.98878 66.664 7.29282C66.4741 6.59685 65.3862 5.25524 63.4953 5.25524C61.6044 5.25524 59.8057 6.64437 59.5236 7.66176C59.2387 8.67915 59.2876 19.5658 59.2876 19.5658H58.0098L58.1047 4.23785L59.3337 4.19033V5.99592C59.3337 5.99592 60.3266 4.00586 63.6363 4.00586C66.2928 4.00586 67.608 6.38164 67.8469 7.01611C68.1779 7.89654 68.0369 19.3813 68.0369 19.3813Z" fill="white" stroke="white"/>
<path d="M68.0369 19.3813L66.759 19.426C66.759 19.426 66.854 7.98878 66.664 7.29282C66.4741 6.59685 65.3862 5.25524 63.4953 5.25524C61.6044 5.25524 59.8057 6.64437 59.5236 7.66176C59.2387 8.67915 59.2876 19.5658 59.2876 19.5658H58.0098L58.1047 4.23785L59.3337 4.19033V5.99592C59.3337 5.99592 60.3266 4.00586 63.6363 4.00586C66.2928 4.00586 67.608 6.38164 67.8469 7.01611C68.1779 7.89654 68.0369 19.3813 68.0369 19.3813Z" fill="white" stroke="white"/>
<path d="M67.7318 7.91914C68.0168 6.90174 69.617 5.44274 71.5078 5.44274C73.3987 5.44274 74.4866 6.78435 74.6765 7.48032C74.8665 8.17348 74.7715 19.6135 74.7715 19.6135L76.0494 19.5688C76.0494 19.5688 76.1904 8.08404 75.8594 7.20361C75.6205 6.57193 74.3053 4.19336 71.6488 4.19336C68.3391 4.19336 67.3462 6.18342 67.3462 6.18342L67.7318 7.91914Z" fill="white" stroke="white"/>
<path d="M67.7318 7.91914C68.0168 6.90174 69.617 5.44274 71.5078 5.44274C73.3987 5.44274 74.4866 6.78435 74.6765 7.48032C74.8665 8.17348 74.7715 19.6135 74.7715 19.6135L76.0494 19.5688C76.0494 19.5688 76.1904 8.08404 75.8594 7.20361C75.6205 6.57193 74.3053 4.19336 71.6488 4.19336C68.3391 4.19336 67.3462 6.18342 67.3462 6.18342L67.7318 7.91914Z" fill="white" stroke="white"/>
<path d="M81.7853 6.75628C85.4605 3.84386 88.5487 7.0833 88.5487 7.0833L80.0095 12.8103C80.0095 12.8103 78.6655 9.2243 81.7853 6.75628ZM84.6633 17.9811C81.4975 17.5619 80.4412 14.2554 80.4412 14.2554L90.7532 7.12802C90.0452 6.51871 87.7572 3.651 83.3653 4.56498C79.9808 5.26933 78.9044 8.32709 78.7605 8.66529C78.1849 10.0153 78.4237 12.8103 78.8554 14.3476C79.2871 15.8849 81.4457 19.1467 84.7554 19.4709C88.0652 19.7951 90.3187 17.1873 90.3187 17.1873L90.2237 15.2783C90.2266 15.2811 87.8292 18.4004 84.6633 17.9811Z" fill="white" stroke="white"/>
<path d="M81.7853 6.75628C85.4605 3.84386 88.5487 7.0833 88.5487 7.0833L80.0095 12.8103C80.0095 12.8103 78.6655 9.2243 81.7853 6.75628ZM84.6633 17.9811C81.4975 17.5619 80.4412 14.2554 80.4412 14.2554L90.7532 7.12802C90.0452 6.51871 87.7572 3.651 83.3653 4.56498C79.9808 5.26933 78.9044 8.32709 78.7605 8.66529C78.1849 10.0153 78.4237 12.8103 78.8554 14.3476C79.2871 15.8849 81.4457 19.1467 84.7554 19.4709C88.0652 19.7951 90.3187 17.1873 90.3187 17.1873L90.2237 15.2783C90.2266 15.2811 87.8292 18.4004 84.6633 17.9811Z" fill="white" stroke="white"/>
<path d="M92.5059 4.54274H93.9449L94.0168 5.87038C94.0168 5.87038 94.8083 4.19336 98.0461 4.19336C101.284 4.19336 103.083 6.21976 103.227 7.05827C103.37 7.89678 103.299 19.7058 103.299 19.7058H101.931C101.931 19.7058 102.219 7.5474 101.931 7.19802C101.644 6.84864 101.068 5.31137 98.118 5.31137C95.2371 5.31137 94.3766 6.70889 94.1607 7.47752C93.9449 8.24615 93.9449 19.566 93.9449 19.566H92.5059V4.54274Z" fill="white" stroke="white"/>
<path d="M92.5059 4.54274H93.9449L94.0168 5.87038C94.0168 5.87038 94.8083 4.19336 98.0461 4.19336C101.284 4.19336 103.083 6.21976 103.227 7.05827C103.37 7.89678 103.299 19.7058 103.299 19.7058H101.931C101.931 19.7058 102.219 7.5474 101.931 7.19802C101.644 6.84864 101.068 5.31137 98.118 5.31137C95.2371 5.31137 94.3766 6.70889 94.1607 7.47752C93.9449 8.24615 93.9449 19.566 93.9449 19.566H92.5059V4.54274Z" fill="white" stroke="white"/>
<path d="M108.214 0.208984L106.991 0.675755L107.029 4.88228H105.23V6.24905H106.885C106.885 6.24905 106.922 12.5435 106.957 15.8863C106.991 19.2292 112.065 19.5254 112.065 19.5254L112.103 18.3012C112.103 18.3012 108.396 17.6807 108.324 15.9199C108.252 14.159 108.252 6.24625 108.252 6.24625L112.209 6.28259L112.246 4.95215L108.252 4.91582L108.214 0.208984Z" fill="white" stroke="white"/>
<path d="M108.214 0.208984L106.991 0.675755L107.029 4.88228H105.23V6.24905H106.885C106.885 6.24905 106.922 12.5435 106.957 15.8863C106.991 19.2292 112.065 19.5254 112.065 19.5254L112.103 18.3012C112.103 18.3012 108.396 17.6807 108.324 15.9199C108.252 14.159 108.252 6.24625 108.252 6.24625L112.209 6.28259L112.246 4.95215L108.252 4.91582L108.214 0.208984Z" fill="white" stroke="white"/>
<path d="M121.551 5.58944C121.551 5.58944 120.112 3.72515 117.427 3.8649C114.742 4.00466 113.541 5.44969 113.205 6.5677C113.046 7.09596 113.167 16.6941 113.3 17.4208C113.587 19.0056 115.697 19.0503 115.697 19.0503L118.526 19.0978C118.526 19.0978 120.06 19.1901 120.06 20.8671C120.06 22.5441 120.155 25.4789 120.109 26.6444C120.06 27.8099 119.246 28.7882 117.712 28.928C116.178 29.0677 92.0972 29.0677 92.0972 29.0677V32.9807C92.0972 32.9807 117.712 33.168 118.526 33.0283C119.341 32.8885 121.643 32.2373 121.741 30.3255C121.836 28.4165 121.885 21.3339 121.836 20.2158C121.787 19.0978 121.165 17.7478 119.628 17.6528C118.094 17.5606 116.27 17.513 116.27 17.513C116.27 17.513 114.975 17.5606 114.736 16.1155C114.612 15.3748 114.603 7.42298 114.736 7.12391C115.216 6.05341 115.838 5.44689 117.421 5.30714C119.004 5.16739 120.299 6.42515 120.299 6.42515L121.551 5.58944Z" fill="white" stroke="white"/>
<path d="M121.551 5.58944C121.551 5.58944 120.112 3.72515 117.427 3.8649C114.742 4.00466 113.541 5.44969 113.205 6.5677C113.046 7.09596 113.167 16.6941 113.3 17.4208C113.587 19.0056 115.697 19.0503 115.697 19.0503L118.526 19.0978C118.526 19.0978 120.06 19.1901 120.06 20.8671C120.06 22.5441 120.155 25.4789 120.109 26.6444C120.06 27.8099 119.246 28.7882 117.712 28.928C116.178 29.0677 92.0972 29.0677 92.0972 29.0677V32.9807C92.0972 32.9807 117.712 33.168 118.526 33.0283C119.341 32.8885 121.643 32.2373 121.741 30.3255C121.836 28.4165 121.885 21.3339 121.836 20.2158C121.787 19.0978 121.165 17.7478 119.628 17.6528C118.094 17.5606 116.27 17.513 116.27 17.513C116.27 17.513 114.975 17.5606 114.736 16.1155C114.612 15.3748 114.603 7.42298 114.736 7.12391C115.216 6.05341 115.838 5.44689 117.421 5.30714C119.004 5.16739 120.299 6.42515 120.299 6.42515L121.551 5.58944Z" fill="white" stroke="white"/>
<path d="M7.6267 39.1305V30.4659C7.6267 30.4659 12.9511 29.9069 13 34.7059C13.0489 39.5022 7.6267 39.1305 7.6267 39.1305ZM20.1462 34.2392C19.8584 24.8758 10.3119 24.7836 9.42547 24.736C8.53903 24.6885 0.21575 24.7137 0.21575 24.7137L0.143799 44.8603C0.143799 44.8603 8.70596 44.8603 10.2889 44.7205C11.8718 44.5808 20.434 43.6025 20.1462 34.2392Z" fill="white" stroke="white"/>
<path d="M7.6267 39.1305V30.4659C7.6267 30.4659 12.9511 29.9069 13 34.7059C13.0489 39.5022 7.6267 39.1305 7.6267 39.1305ZM20.1462 34.2392C19.8584 24.8758 10.3119 24.7836 9.42547 24.736C8.53903 24.6885 0.21575 24.7137 0.21575 24.7137L0.143799 44.8603C0.143799 44.8603 8.70596 44.8603 10.2889 44.7205C11.8718 44.5808 20.434 43.6025 20.1462 34.2392Z" fill="white" stroke="white"/>
<path d="M22.2586 29.8379H28.6364V44.7913H22.2097L22.2586 29.8379Z" fill="white" stroke="white"/>
<path d="M22.2586 29.8379H28.6364V44.7913H22.2097L22.2586 29.8379Z" fill="white" stroke="white"/>
<path d="M25.4707 22.4297L22.1121 25.5517L25.4218 28.8583L28.6366 25.644L25.4707 22.4297Z" fill="white" stroke="white"/>
<path d="M25.4707 22.4297L22.1121 25.5517L25.4218 28.8583L28.6366 25.644L25.4707 22.4297Z" fill="white" stroke="white"/>
<path d="M31.6584 29.8598L31.67 44.7098L37.4951 44.7126L37.4865 37.1744C37.4865 37.1744 38.301 35.939 39.2852 35.2402C40.2695 34.5415 41.5877 35.1704 41.5877 35.1704L43.0756 30.0918C43.0756 30.0918 42.2611 29.2533 40.4854 29.6949C38.7096 30.1365 37.4404 32.1405 37.4404 32.1405L37.4634 29.8346L31.6584 29.8598Z" fill="white" stroke="white"/>
<path d="M31.6584 29.8598L31.67 44.7098L37.4951 44.7126L37.4865 37.1744C37.4865 37.1744 38.301 35.939 39.2852 35.2402C40.2695 34.5415 41.5877 35.1704 41.5877 35.1704L43.0756 30.0918C43.0756 30.0918 42.2611 29.2533 40.4854 29.6949C38.7096 30.1365 37.4404 32.1405 37.4404 32.1405L37.4634 29.8346L31.6584 29.8598Z" fill="white" stroke="white"/>
<path d="M51.1341 33.3088C53.1977 32.2831 54.9705 33.8678 54.9705 33.8678L49.885 37.2694C49.8879 37.2666 49.0706 34.3318 51.1341 33.3088ZM58.3292 38.5719C56.7233 39.483 53.5603 41.2607 52.0464 39.1309C54.4928 37.3616 60.8734 33.1691 60.8734 33.1691C60.8734 33.1691 58.1364 28.5098 52.5242 28.5098C48.0086 28.5098 45.332 31.084 44.4168 32.9343C43.7347 34.3122 43.4641 35.802 43.5534 36.8949C43.6483 38.0604 43.9361 39.2706 44.3678 40.0169C45.4989 41.9706 48.7655 44.8439 52.8091 44.7684C57.8946 44.6762 60.9166 42.5324 60.9166 42.5324L58.3292 38.5719Z" fill="white" stroke="white"/>
<path d="M51.1341 33.3088C53.1977 32.2831 54.9705 33.8678 54.9705 33.8678L49.885 37.2694C49.8879 37.2666 49.0706 34.3318 51.1341 33.3088ZM58.3292 38.5719C56.7233 39.483 53.5603 41.2607 52.0464 39.1309C54.4928 37.3616 60.8734 33.1691 60.8734 33.1691C60.8734 33.1691 58.1364 28.5098 52.5242 28.5098C48.0086 28.5098 45.332 31.084 44.4168 32.9343C43.7347 34.3122 43.4641 35.802 43.5534 36.8949C43.6483 38.0604 43.9361 39.2706 44.3678 40.0169C45.4989 41.9706 48.7655 44.8439 52.8091 44.7684C57.8946 44.6762 60.9166 42.5324 60.9166 42.5324L58.3292 38.5719Z" fill="white" stroke="white"/>
<path d="M74.3512 34.7505L78.4754 30.5105C78.4754 30.5105 76.268 28.4142 71.6631 28.4617C67.0583 28.5092 62.6923 31.444 62.4534 36.1956C62.2145 40.9471 67.0093 44.5807 71.4242 44.6282C75.8391 44.6757 78.5243 42.5794 78.5243 42.5794L74.4462 38.3394C74.4462 38.3394 73.8706 39.2254 72.0488 39.2701C70.227 39.3176 69.0758 37.7804 69.1218 36.6148C69.1707 35.4493 70.368 34.1915 71.9998 34.1468C73.6317 34.0993 74.3512 34.7505 74.3512 34.7505Z" fill="white" stroke="white"/>
<path d="M74.3512 34.7505L78.4754 30.5105C78.4754 30.5105 76.268 28.4142 71.6631 28.4617C67.0583 28.5092 62.6923 31.444 62.4534 36.1956C62.2145 40.9471 67.0093 44.5807 71.4242 44.6282C75.8391 44.6757 78.5243 42.5794 78.5243 42.5794L74.4462 38.3394C74.4462 38.3394 73.8706 39.2254 72.0488 39.2701C70.227 39.3176 69.0758 37.7804 69.1218 36.6148C69.1707 35.4493 70.368 34.1915 71.9998 34.1468C73.6317 34.0993 74.3512 34.7505 74.3512 34.7505Z" fill="white" stroke="white"/>
<path d="M79.7705 29.1168L78.8582 33.1221H80.7289C80.7289 33.1221 80.8239 39.6904 81.0167 40.8559C81.2095 42.0215 81.929 43.2792 83.463 44.1625C84.997 45.0485 88.4046 44.5817 88.4046 44.5817L89.7487 39.6429C89.7487 39.6429 87.3023 40.3892 86.4389 39.2236C85.7798 38.3348 86.2 33.0522 86.2 33.0522L89.15 32.9823L89.173 29.1168L86.2461 29.1643L86.3411 24.832L80.9217 27.3476V29.0693L79.7705 29.1168Z" fill="white" stroke="white"/>
<path d="M79.7705 29.1168L78.8582 33.1221H80.7289C80.7289 33.1221 80.8239 39.6904 81.0167 40.8559C81.2095 42.0215 81.929 43.2792 83.463 44.1625C84.997 45.0485 88.4046 44.5817 88.4046 44.5817L89.7487 39.6429C89.7487 39.6429 87.3023 40.3892 86.4389 39.2236C85.7798 38.3348 86.2 33.0522 86.2 33.0522L89.15 32.9823L89.173 29.1168L86.2461 29.1643L86.3411 24.832L80.9217 27.3476V29.0693L79.7705 29.1168Z" fill="white" stroke="white"/>
<path d="M118 37C115.794 37 114 38.7944 114 41C114 43.2057 115.794 45 118 45C120.206 45 122 43.2056 122 41C122 38.7944 120.206 37 118 37ZM118 43.8991C116.401 43.8991 115.101 42.5986 115.101 41C115.101 39.4014 116.401 38.1009 118 38.1009C119.599 38.1009 120.899 39.4014 120.899 41C120.899 42.5986 119.599 43.8991 118 43.8991ZM119.454 40.4798C119.454 39.6723 118.887 39.1707 117.975 39.1707H116.623V42.8294H117.398V41.81H117.975C118.009 41.81 118.045 41.8091 118.081 41.8073L118.827 42.8294H119.787L118.878 41.5839C119.249 41.3522 119.454 40.9609 119.454 40.4798ZM117.975 41.0352H117.398V39.9455H117.975C118.679 39.9455 118.679 40.3476 118.679 40.4798C118.679 40.6171 118.679 41.0352 117.975 41.0352Z" fill="white"/>
</g>
<defs>
<clipPath id="clip0_3691_166">
<rect width="122" height="45" fill="white"/>
</clipPath>
</defs>
</svg>
