<svg width="146" height="55" viewBox="0 0 146 55" fill="none" xmlns="http://www.w3.org/2000/svg">
<g clip-path="url(#clip0_3691_536)">
<path d="M2.13195 0.170898H0.451172V23.9405H2.13195V0.170898Z" fill="#00539B" stroke="#00539B"/>
<path d="M2.13195 0.170898H0.451172V23.9405H2.13195V0.170898Z" fill="#00539B" stroke="#00539B"/>
<path d="M6.28564 5.38014H8.00775L8.09385 7.00281C8.09385 7.00281 9.04101 4.95312 12.9157 4.95312C16.7905 4.95312 18.9431 7.42983 19.1153 8.45468C19.2875 9.47952 19.2014 23.9128 19.2014 23.9128H17.5654C17.5654 23.9128 17.9098 9.0525 17.5654 8.62549C17.221 8.19847 16.5322 6.31958 13.0019 6.31958C9.5542 6.31958 8.52438 8.02766 8.26606 8.9671C8.00775 9.90654 8.00775 23.9401 8.00775 23.9401H6.28564V5.38014Z" fill="#00539B" stroke="#00539B"/>
<path d="M6.28564 5.38014H8.00775L8.09385 7.00281C8.09385 7.00281 9.04101 4.95312 12.9157 4.95312C16.7905 4.95312 18.9431 7.42983 19.1153 8.45468C19.2875 9.47952 19.2014 23.9128 19.2014 23.9128H17.5654C17.5654 23.9128 17.9098 9.0525 17.5654 8.62549C17.221 8.19847 16.5322 6.31958 13.0019 6.31958C9.5542 6.31958 8.52438 8.02766 8.26606 8.9671C8.00775 9.90654 8.00775 23.9401 8.00775 23.9401H6.28564V5.38014Z" fill="#00539B" stroke="#00539B"/>
<path d="M31.2562 8.08953C31.1116 7.99388 26.2621 3.57338 22.687 6.77773C20.6239 9.1827 21.423 11.615 22.4322 12.6398C23.5963 13.8218 27.9945 15.0824 29.882 17.279C32.2378 20.0256 29.7235 22.0923 28.6317 22.4886C26.2208 23.3631 22.5596 20.2579 22.5596 20.2579L21.4816 21.6585C21.4816 21.6585 24.8397 24.2855 27.1232 24.2411C29.3033 24.2001 31.8176 23.6706 32.2481 20.0836C32.5891 17.2277 31.3768 15.4343 27.3815 13.692C24.1749 12.2948 23.2037 11.328 23.2037 11.328C23.2037 11.328 21.6985 9.13829 24.1956 7.47462C26.6926 5.81096 30.1368 9.22711 30.1368 9.22711L31.2562 8.08953Z" fill="#00539B" stroke="#00539B"/>
<path d="M31.2562 8.08953C31.1116 7.99388 26.2621 3.57338 22.687 6.77773C20.6239 9.1827 21.423 11.615 22.4322 12.6398C23.5963 13.8218 27.9945 15.0824 29.882 17.279C32.2378 20.0256 29.7235 22.0923 28.6317 22.4886C26.2208 23.3631 22.5596 20.2579 22.5596 20.2579L21.4816 21.6585C21.4816 21.6585 24.8397 24.2855 27.1232 24.2411C29.3033 24.2001 31.8176 23.6706 32.2481 20.0836C32.5891 17.2277 31.3768 15.4343 27.3815 13.692C24.1749 12.2948 23.2037 11.328 23.2037 11.328C23.2037 11.328 21.6985 9.13829 24.1956 7.47462C26.6926 5.81096 30.1368 9.22711 30.1368 9.22711L31.2562 8.08953Z" fill="#00539B" stroke="#00539B"/>
<path d="M37.1975 0.426758L35.7337 0.997255L35.7785 6.13856H33.6259V7.80906H35.6063C35.6063 7.80906 35.651 15.5022 35.6924 19.5879C35.7337 23.6737 41.8058 24.0358 41.8058 24.0358L41.8472 22.5463C41.8472 22.5463 37.411 21.7879 37.3249 19.6358C37.2388 17.4836 37.2388 7.81247 37.2388 7.81247L41.9781 7.85688L42.0228 6.23079L37.2423 6.18639L37.1975 0.426758Z" fill="#00539B" stroke="#00539B"/>
<path d="M37.1975 0.426758L35.7337 0.997255L35.7785 6.13856H33.6259V7.80906H35.6063C35.6063 7.80906 35.651 15.5022 35.6924 19.5879C35.7337 23.6737 41.8058 24.0358 41.8058 24.0358L41.8472 22.5463C41.8472 22.5463 37.411 21.7879 37.3249 19.6358C37.2388 17.4836 37.2388 7.81247 37.2388 7.81247L41.9781 7.85688L42.0228 6.23079L37.2423 6.18639L37.1975 0.426758Z" fill="#00539B" stroke="#00539B"/>
<path d="M44.3441 5.76626L45.7218 5.12402L45.6357 8.41377C45.6357 8.41377 46.7551 7.00291 48.4772 5.93707C50.1993 4.87123 51.9662 5.25384 51.9662 5.25384L51.3187 6.57589C51.3187 6.57589 50.2406 6.40508 48.9938 7.17371C47.747 7.94235 45.8493 9.95104 45.8493 9.95104L45.677 23.3594L44.2133 23.8718L44.3441 5.76626Z" fill="#00539B" stroke="#00539B"/>
<path d="M44.3441 5.76626L45.7218 5.12402L45.6357 8.41377C45.6357 8.41377 46.7551 7.00291 48.4772 5.93707C50.1993 4.87123 51.9662 5.25384 51.9662 5.25384L51.3187 6.57589C51.3187 6.57589 50.2406 6.40508 48.9938 7.17371C47.747 7.94235 45.8493 9.95104 45.8493 9.95104L45.677 23.3594L44.2133 23.8718L44.3441 5.76626Z" fill="#00539B" stroke="#00539B"/>
<path d="M53.3852 5.466L54.9351 5.06632C54.9351 5.06632 54.8214 19.1306 55.0488 19.9846C55.2761 20.8387 56.5986 22.4887 58.8959 22.4887C61.1932 22.4887 63.3734 20.7806 63.7178 19.5269C64.0622 18.2731 64.0037 5.57874 64.0037 5.57874L65.5536 4.89551L65.4399 23.7424L63.9486 23.8005V21.58C63.9486 21.58 62.7431 24.0294 58.7237 24.0294C54.8387 24.0294 53.9363 21.1974 53.616 20.3297C53.213 19.2433 53.3852 5.466 53.3852 5.466Z" fill="#00539B" stroke="#00539B"/>
<path d="M53.3852 5.466L54.9351 5.06632C54.9351 5.06632 54.8214 19.1306 55.0488 19.9846C55.2761 20.8387 56.5986 22.4887 58.8959 22.4887C61.1932 22.4887 63.3734 20.7806 63.7178 19.5269C64.0622 18.2731 64.0037 5.57874 64.0037 5.57874L65.5536 4.89551L65.4399 23.7424L63.9486 23.8005V21.58C63.9486 21.58 62.7431 24.0294 58.7237 24.0294C54.8387 24.0294 53.9363 21.1974 53.616 20.3297C53.213 19.2433 53.3852 5.466 53.3852 5.466Z" fill="#00539B" stroke="#00539B"/>
<path d="M81.421 23.6877L79.8918 23.7424C79.8918 23.7424 80.0055 9.76352 79.7781 8.9129C79.5508 8.06228 78.2489 6.42253 75.9861 6.42253C73.7232 6.42253 71.5706 8.12035 71.233 9.36383C70.8921 10.6073 70.9506 23.9132 70.9506 23.9132H69.4214L69.535 5.17905L71.0057 5.12097V7.32781C71.0057 7.32781 72.194 4.89551 76.1548 4.89551C79.3338 4.89551 80.9078 7.79924 81.1937 8.5747C81.5898 9.65079 81.421 23.6877 81.421 23.6877Z" fill="#00539B" stroke="#00539B"/>
<path d="M81.421 23.6877L79.8918 23.7424C79.8918 23.7424 80.0055 9.76352 79.7781 8.9129C79.5508 8.06228 78.2489 6.42253 75.9861 6.42253C73.7232 6.42253 71.5706 8.12035 71.233 9.36383C70.8921 10.6073 70.9506 23.9132 70.9506 23.9132H69.4214L69.535 5.17905L71.0057 5.12097V7.32781C71.0057 7.32781 72.194 4.89551 76.1548 4.89551C79.3338 4.89551 80.9078 7.79924 81.1937 8.5747C81.5898 9.65079 81.421 23.6877 81.421 23.6877Z" fill="#00539B" stroke="#00539B"/>
<path d="M81.056 9.67775C81.397 8.43427 83.312 6.65104 85.5748 6.65104C87.8376 6.65104 89.1395 8.29079 89.3669 9.14142C89.5942 9.98862 89.4805 23.9709 89.4805 23.9709L91.0097 23.9163C91.0097 23.9163 91.1785 9.8793 90.7824 8.80322C90.4966 8.03117 88.9226 5.12402 85.7436 5.12402C81.7827 5.12402 80.5945 7.55632 80.5945 7.55632L81.056 9.67775Z" fill="#00539B" stroke="#00539B"/>
<path d="M81.056 9.67775C81.397 8.43427 83.312 6.65104 85.5748 6.65104C87.8376 6.65104 89.1395 8.29079 89.3669 9.14142C89.5942 9.98862 89.4805 23.9709 89.4805 23.9709L91.0097 23.9163C91.0097 23.9163 91.1785 9.8793 90.7824 8.80322C90.4966 8.03117 88.9226 5.12402 85.7436 5.12402C81.7827 5.12402 80.5945 7.55632 80.5945 7.55632L81.056 9.67775Z" fill="#00539B" stroke="#00539B"/>
<path d="M97.8742 8.25649C102.272 4.69686 105.968 8.65618 105.968 8.65618L95.7491 15.6559C95.7491 15.6559 94.1406 11.2729 97.8742 8.25649ZM101.318 21.9757C97.5297 21.4633 96.2657 17.422 96.2657 17.422L108.606 8.71083C107.759 7.96611 105.021 4.46114 99.765 5.57822C95.7146 6.43909 94.4265 10.1764 94.2543 10.5897C93.5654 12.2397 93.8513 15.6559 94.3679 17.5347C94.8846 19.4136 97.4677 23.4003 101.429 23.7966C105.389 24.1928 108.086 21.0056 108.086 21.0056L107.973 18.6723C107.976 18.6757 105.107 22.4882 101.318 21.9757Z" fill="#00539B" stroke="#00539B"/>
<path d="M97.8742 8.25649C102.272 4.69686 105.968 8.65618 105.968 8.65618L95.7491 15.6559C95.7491 15.6559 94.1406 11.2729 97.8742 8.25649ZM101.318 21.9757C97.5297 21.4633 96.2657 17.422 96.2657 17.422L108.606 8.71083C107.759 7.96611 105.021 4.46114 99.765 5.57822C95.7146 6.43909 94.4265 10.1764 94.2543 10.5897C93.5654 12.2397 93.8513 15.6559 94.3679 17.5347C94.8846 19.4136 97.4677 23.4003 101.429 23.7966C105.389 24.1928 108.086 21.0056 108.086 21.0056L107.973 18.6723C107.976 18.6757 105.107 22.4882 101.318 21.9757Z" fill="#00539B" stroke="#00539B"/>
<path d="M110.704 5.55104H112.426L112.512 7.17371C112.512 7.17371 113.459 5.12402 117.334 5.12402C121.209 5.12402 123.361 7.60073 123.533 8.62558C123.706 9.65042 123.62 24.0837 123.62 24.0837H121.984C121.984 24.0837 122.328 9.2234 121.984 8.79638C121.639 8.36936 120.95 6.49048 117.42 6.49048C113.972 6.49048 112.942 8.19856 112.684 9.138C112.426 10.0774 112.426 23.9128 112.426 23.9128H110.704V5.55104Z" fill="#00539B" stroke="#00539B"/>
<path d="M110.704 5.55104H112.426L112.512 7.17371C112.512 7.17371 113.459 5.12402 117.334 5.12402C121.209 5.12402 123.361 7.60073 123.533 8.62558C123.706 9.65042 123.62 24.0837 123.62 24.0837H121.984C121.984 24.0837 122.328 9.2234 121.984 8.79638C121.639 8.36936 120.95 6.49048 117.42 6.49048C113.972 6.49048 112.942 8.19856 112.684 9.138C112.426 10.0774 112.426 23.9128 112.426 23.9128H110.704V5.55104Z" fill="#00539B" stroke="#00539B"/>
<path d="M129.502 0.255859L128.039 0.826356L128.083 5.96766H125.931V7.63816H127.911C127.911 7.63816 127.956 15.3313 127.997 19.417C128.039 23.5028 134.111 23.8649 134.111 23.8649L134.155 22.3686C134.155 22.3686 129.719 21.6102 129.633 19.458C129.547 17.3059 129.547 7.63474 129.547 7.63474L134.283 7.67915L134.328 6.05306L129.547 6.00866L129.502 0.255859Z" fill="#00539B" stroke="#00539B"/>
<path d="M129.502 0.255859L128.039 0.826356L128.083 5.96766H125.931V7.63816H127.911C127.911 7.63816 127.956 15.3313 127.997 19.417C128.039 23.5028 134.111 23.8649 134.111 23.8649L134.155 22.3686C134.155 22.3686 129.719 21.6102 129.633 19.458C129.547 17.3059 129.547 7.63474 129.547 7.63474L134.283 7.67915L134.328 6.05306L129.547 6.00866L129.502 0.255859Z" fill="#00539B" stroke="#00539B"/>
<path d="M145.463 6.83273C145.463 6.83273 143.741 4.55416 140.527 4.72497C137.314 4.89577 135.877 6.66192 135.474 8.02838C135.285 8.67403 135.43 20.4051 135.588 21.2933C135.933 23.2302 138.457 23.2849 138.457 23.2849L141.843 23.343C141.843 23.343 143.679 23.4557 143.679 25.5054C143.679 27.5551 143.792 31.1421 143.737 32.5666C143.679 33.9911 142.704 35.1868 140.868 35.3576C139.032 35.5284 110.215 35.5284 110.215 35.5284V40.311C110.215 40.311 140.868 40.5399 141.843 40.3691C142.817 40.1983 145.573 39.4023 145.69 37.0657C145.804 34.7324 145.862 26.0759 145.804 24.7094C145.745 23.343 145.001 21.693 143.162 21.5768C141.326 21.4641 139.143 21.406 139.143 21.406C139.143 21.406 137.593 21.4641 137.307 19.6979C137.159 18.7927 137.148 9.07372 137.307 8.7082C137.882 7.39981 138.626 6.65851 140.52 6.4877C142.415 6.31689 143.964 7.85416 143.964 7.85416L145.463 6.83273Z" fill="#00539B" stroke="#00539B"/>
<path d="M145.463 6.83273C145.463 6.83273 143.741 4.55416 140.527 4.72497C137.314 4.89577 135.877 6.66192 135.474 8.02838C135.285 8.67403 135.43 20.4051 135.588 21.2933C135.933 23.2302 138.457 23.2849 138.457 23.2849L141.843 23.343C141.843 23.343 143.679 23.4557 143.679 25.5054C143.679 27.5551 143.792 31.1421 143.737 32.5666C143.679 33.9911 142.704 35.1868 140.868 35.3576C139.032 35.5284 110.215 35.5284 110.215 35.5284V40.311C110.215 40.311 140.868 40.5399 141.843 40.3691C142.817 40.1983 145.573 39.4023 145.69 37.0657C145.804 34.7324 145.862 26.0759 145.804 24.7094C145.745 23.343 145.001 21.693 143.162 21.5768C141.326 21.4641 139.143 21.406 139.143 21.406C139.143 21.406 137.593 21.4641 137.307 19.6979C137.159 18.7927 137.148 9.07372 137.307 8.7082C137.882 7.39981 138.626 6.65851 140.52 6.4877C142.415 6.31689 143.964 7.85416 143.964 7.85416L145.463 6.83273Z" fill="#00539B" stroke="#00539B"/>
<path d="M9.12718 47.8259V37.2358C9.12718 37.2358 15.499 36.5526 15.5575 42.4181C15.6161 48.2802 9.12718 47.8259 9.12718 47.8259ZM24.1095 41.8476C23.7651 30.4035 12.3406 30.2908 11.2798 30.2327C10.219 30.1747 0.258346 30.2054 0.258346 30.2054L0.172241 54.829C0.172241 54.829 10.4188 54.829 12.3131 54.6582C14.2074 54.4874 24.4539 53.2917 24.1095 41.8476Z" fill="#00539B" stroke="#00539B"/>
<path d="M9.12718 47.8259V37.2358C9.12718 37.2358 15.499 36.5526 15.5575 42.4181C15.6161 48.2802 9.12718 47.8259 9.12718 47.8259ZM24.1095 41.8476C23.7651 30.4035 12.3406 30.2908 11.2798 30.2327C10.219 30.1747 0.258346 30.2054 0.258346 30.2054L0.172241 54.829C0.172241 54.829 10.4188 54.829 12.3131 54.6582C14.2074 54.4874 24.4539 53.2917 24.1095 41.8476Z" fill="#ED1B24" stroke="#ED1B24"/>
<path d="M26.6374 36.4678H34.2698V54.7442H26.5789L26.6374 36.4678Z" fill="#00539B" stroke="#00539B"/>
<path d="M26.6374 36.4678H34.2698V54.7442H26.5789L26.6374 36.4678Z" fill="#ED1B24" stroke="#ED1B24"/>
<path d="M30.4813 27.415L26.4619 31.2309L30.4228 35.2722L34.2699 31.3436L30.4813 27.415Z" fill="#00539B" stroke="#00539B"/>
<path d="M30.4813 27.415L26.4619 31.2309L30.4228 35.2722L34.2699 31.3436L30.4813 27.415Z" fill="#ED1B24" stroke="#ED1B24"/>
<path d="M37.8864 36.4943L37.9001 54.6443L44.8712 54.6478L44.8609 45.4344C44.8609 45.4344 45.8356 43.9245 47.0135 43.0704C48.1914 42.2164 49.7689 42.985 49.7689 42.985L51.5495 36.7779C51.5495 36.7779 50.5748 35.753 48.4497 36.2928C46.3247 36.8325 44.8058 39.2819 44.8058 39.2819L44.8333 36.4636L37.8864 36.4943Z" fill="#00539B" stroke="#00539B"/>
<path d="M37.8864 36.4943L37.9001 54.6443L44.8712 54.6478L44.8609 45.4344C44.8609 45.4344 45.8356 43.9245 47.0135 43.0704C48.1914 42.2164 49.7689 42.985 49.7689 42.985L51.5495 36.7779C51.5495 36.7779 50.5748 35.753 48.4497 36.2928C46.3247 36.8325 44.8058 39.2819 44.8058 39.2819L44.8333 36.4636L37.8864 36.4943Z" fill="#ED1B24" stroke="#ED1B24"/>
<path d="M61.1932 40.7103C63.6627 39.4565 65.7843 41.3935 65.7843 41.3935L59.6984 45.5509C59.7019 45.5475 58.7237 41.9606 61.1932 40.7103ZM69.8037 47.1429C67.8819 48.2565 64.0967 50.4292 62.285 47.8261C65.2126 45.6637 72.8484 40.5394 72.8484 40.5394C72.8484 40.5394 69.573 34.8447 62.8568 34.8447C57.4528 34.8447 54.2497 37.991 53.1544 40.2525C52.3382 41.9366 52.0144 43.7575 52.1212 45.0932C52.2348 46.5177 52.5793 47.9969 53.0959 48.909C54.4495 51.2969 58.3586 54.8087 63.1978 54.7165C69.2837 54.6037 72.9001 51.9835 72.9001 51.9835L69.8037 47.1429Z" fill="#00539B" stroke="#00539B"/>
<path d="M61.1932 40.7103C63.6627 39.4565 65.7843 41.3935 65.7843 41.3935L59.6984 45.5509C59.7019 45.5475 58.7237 41.9606 61.1932 40.7103ZM69.8037 47.1429C67.8819 48.2565 64.0967 50.4292 62.285 47.8261C65.2126 45.6637 72.8484 40.5394 72.8484 40.5394C72.8484 40.5394 69.573 34.8447 62.8568 34.8447C57.4528 34.8447 54.2497 37.991 53.1544 40.2525C52.3382 41.9366 52.0144 43.7575 52.1212 45.0932C52.2348 46.5177 52.5793 47.9969 53.0959 48.909C54.4495 51.2969 58.3586 54.8087 63.1978 54.7165C69.2837 54.6037 72.9001 51.9835 72.9001 51.9835L69.8037 47.1429Z" fill="#ED1B24" stroke="#ED1B24"/>
<path d="M88.9776 42.4734L93.9131 37.2911C93.9131 37.2911 91.2714 34.729 85.7607 34.7871C80.25 34.8452 75.0251 38.4321 74.7393 44.2396C74.4534 50.047 80.1914 54.488 85.4748 54.5461C90.7582 54.6042 93.9717 52.0421 93.9717 52.0421L89.0913 46.8598C89.0913 46.8598 88.4024 47.9427 86.2222 47.9973C84.0421 48.0554 82.6644 46.1765 82.7195 44.752C82.778 43.3275 84.2108 41.7902 86.1637 41.7355C88.1165 41.6775 88.9776 42.4734 88.9776 42.4734Z" fill="#00539B" stroke="#00539B"/>
<path d="M88.9776 42.4734L93.9131 37.2911C93.9131 37.2911 91.2714 34.729 85.7607 34.7871C80.25 34.8452 75.0251 38.4321 74.7393 44.2396C74.4534 50.047 80.1914 54.488 85.4748 54.5461C90.7582 54.6042 93.9717 52.0421 93.9717 52.0421L89.0913 46.8598C89.0913 46.8598 88.4024 47.9427 86.2222 47.9973C84.0421 48.0554 82.6644 46.1765 82.7195 44.752C82.778 43.3275 84.2108 41.7902 86.1637 41.7355C88.1165 41.6775 88.9776 42.4734 88.9776 42.4734Z" fill="#ED1B24" stroke="#ED1B24"/>
<path d="M95.4632 35.5856L94.3713 40.4809H96.6101C96.6101 40.4809 96.7237 48.5089 96.9545 49.9334C97.1853 51.358 98.0463 52.8952 99.8821 53.9747C101.718 55.0576 105.796 54.4871 105.796 54.4871L107.404 48.4508C107.404 48.4508 104.477 49.3629 103.443 47.9384C102.655 46.8521 103.158 40.3955 103.158 40.3955L106.688 40.3101L106.715 35.5856L103.213 35.6437L103.326 30.3486L96.8408 33.4232V35.5275L95.4632 35.5856Z" fill="#00539B" stroke="#00539B"/>
<path d="M95.4632 35.5856L94.3713 40.4809H96.6101C96.6101 40.4809 96.7237 48.5089 96.9545 49.9334C97.1853 51.358 98.0463 52.8952 99.8821 53.9747C101.718 55.0576 105.796 54.4871 105.796 54.4871L107.404 48.4508C107.404 48.4508 104.477 49.3629 103.443 47.9384C102.655 46.8521 103.158 40.3955 103.158 40.3955L106.688 40.3101L106.715 35.5856L103.213 35.6437L103.326 30.3486L96.8408 33.4232V35.5275L95.4632 35.5856Z" fill="#ED1B24" stroke="#ED1B24"/>
<g clip-path="url(#clip1_3691_536)">
<path d="M141 45C138.243 45 136 47.243 136 50C136 52.7571 138.243 55 141 55C143.757 55 146 52.757 146 50C146 47.243 143.757 45 141 45ZM141 53.6239C139.002 53.6239 137.376 51.9983 137.376 50C137.376 48.0018 139.002 46.3761 141 46.3761C142.998 46.3761 144.624 48.0018 144.624 50C144.624 51.9983 142.998 53.6239 141 53.6239ZM142.817 49.3497C142.817 48.3404 142.109 47.7133 140.968 47.7133H139.279V52.2867H140.247V51.0125H140.968C141.011 51.0125 141.056 51.0114 141.102 51.0092L142.034 52.2868H143.234L142.098 50.7299C142.562 50.4403 142.817 49.9512 142.817 49.3497ZM140.968 50.044H140.247V48.6819H140.968C141.848 48.6819 141.848 49.1845 141.848 49.3497C141.848 49.5214 141.848 50.044 140.968 50.044Z" fill="#00539B"/>
</g>
</g>
<defs>
<clipPath id="clip0_3691_536">
<rect width="146" height="55" fill="white"/>
</clipPath>
<clipPath id="clip1_3691_536">
<rect width="10" height="10" fill="white" transform="translate(136 45)"/>
</clipPath>
</defs>
</svg>
