<svg width="24" height="25" viewBox="0 0 24 25" fill="none" xmlns="http://www.w3.org/2000/svg">
<g opacity="0.5">
<path d="M21.5942 4.18945H2.90674C2.50918 4.18945 2.18799 4.52461 2.18799 4.93945V19.9395C2.18799 20.3543 2.50918 20.6895 2.90674 20.6895H21.5942C21.9918 20.6895 22.313 20.3543 22.313 19.9395V4.93945C22.313 4.52461 21.9918 4.18945 21.5942 4.18945ZM19.7794 6.7418L12.693 12.4957C12.5178 12.6387 12.2729 12.6387 12.0978 12.4957L5.00908 6.7418C4.98236 6.72028 4.96276 6.69057 4.95303 6.65685C4.9433 6.62312 4.94393 6.58706 4.95482 6.55373C4.96572 6.52039 4.98634 6.49145 5.01379 6.47096C5.04125 6.45046 5.07416 6.43945 5.10791 6.43945H19.6806C19.7143 6.43945 19.7472 6.45046 19.7747 6.47096C19.8021 6.49145 19.8228 6.52039 19.8337 6.55373C19.8445 6.58706 19.8452 6.62312 19.8354 6.65685C19.8257 6.69057 19.8061 6.72028 19.7794 6.7418Z" fill="white"/>
</g>
</svg>
