<svg width="20" height="21" viewBox="0 0 20 21" fill="none" xmlns="http://www.w3.org/2000/svg">
<path d="M4.68066 10.6797C4.2276 10.6797 3.86035 11.0469 3.86035 11.5C3.86035 11.9531 4.2276 12.3203 4.68066 12.3203H9.81216C10.2652 12.3203 10.6325 11.9531 10.6325 11.5C10.6325 11.0469 10.2652 10.6797 9.81216 10.6797H4.68066Z" fill="#2888DB"/>
<path d="M6.60848 19.3594H3.86499C2.96035 19.3594 2.22436 18.6234 2.22436 17.7188V3.28125C2.22436 2.37661 2.96035 1.64062 3.86499 1.64062H13.9503C14.8549 1.64062 15.5909 2.37661 15.5909 3.28125V8.32617C15.5909 8.77923 15.9582 9.14648 16.4112 9.14648C16.8643 9.14648 17.2315 8.77923 17.2315 8.32617V3.28125C17.2315 1.47197 15.7596 0 13.9503 0H3.86499C2.05571 0 0.58374 1.47197 0.58374 3.28125V17.7188C0.58374 19.528 2.05571 21 3.86499 21H6.60848C7.06154 21 7.4288 20.6327 7.4288 20.1797C7.4288 19.7266 7.06154 19.3594 6.60848 19.3594Z" fill="#2888DB"/>
<path d="M18.6845 11.876C17.725 10.9165 16.1638 10.9164 15.2049 11.8753L10.7012 16.369C10.6056 16.4644 10.535 16.582 10.4957 16.7113L9.51493 19.9402C9.42798 20.2265 9.50373 20.5374 9.71266 20.7515C9.86918 20.9119 10.0818 20.999 10.2999 20.999C10.3729 20.999 10.4465 20.9892 10.5188 20.9692L13.8298 20.052C13.9661 20.0143 14.0903 19.942 14.1903 19.8421L18.6845 15.3563C19.6441 14.3968 19.6441 12.8356 18.6845 11.876ZM13.184 18.5285L11.5183 18.99L12.0057 17.3851L15.0445 14.353L16.2049 15.5133L13.184 18.5285ZM17.525 14.1957L17.3661 14.3544L16.206 13.1942L16.3644 13.0362C16.6842 12.7163 17.2046 12.7163 17.5245 13.0362C17.8443 13.356 17.8443 13.8764 17.525 14.1957Z" fill="#2888DB"/>
<path d="M13.1299 5.92188H4.68066C4.22761 5.92188 3.86035 6.28913 3.86035 6.74219C3.86035 7.19525 4.22761 7.5625 4.68066 7.5625H13.1299C13.583 7.5625 13.9502 7.19525 13.9502 6.74219C13.9502 6.28913 13.583 5.92188 13.1299 5.92188Z" fill="#2888DB"/>
</svg>
