<svg width="40" height="41" viewBox="0 0 40 41" fill="none" xmlns="http://www.w3.org/2000/svg">
<rect width="40" height="41" fill="#E5E5E5"/>
<g clip-path="url(#clip0_0_1)">
<rect width="1440" height="4297" transform="translate(-441 -3661)" fill="white"/>
<rect x="-441" y="-24.4531" width="1440" height="662.56" fill="#002646"/>
<circle opacity="0.1" cx="20.0001" cy="20.5469" r="20" fill="white"/>
<g clip-path="url(#clip1_0_1)">
<path d="M20.0002 22.4004C19.2507 22.4004 18.6213 22.9223 18.4552 23.6217C19.425 24.111 20.5749 24.1113 21.5452 23.6217C21.379 22.9223 20.7496 22.4004 20.0002 22.4004Z" fill="white"/>
<path d="M20.0001 17.1055C18.1027 17.1055 16.559 18.6492 16.559 20.5466C16.559 21.49 16.9406 22.3459 17.5576 22.9681C17.7692 22.4632 18.1332 22.0377 18.5914 21.7484C18.3148 21.4245 18.1472 21.0049 18.1472 20.5466C18.1472 19.5249 18.9784 18.6937 20.0001 18.6937C21.0218 18.6937 21.8531 19.5249 21.8531 20.5466C21.8531 21.0049 21.6855 21.4245 21.4088 21.7484C21.8671 22.0377 22.2311 22.4632 22.4427 22.9681C23.0596 22.3459 23.4413 21.49 23.4413 20.5466C23.4413 18.6492 21.8976 17.1055 20.0001 17.1055Z" fill="white"/>
<path d="M20.0002 21.3402C20.4387 21.3402 20.7943 20.9846 20.7943 20.5461C20.7943 20.1075 20.4387 19.752 20.0002 19.752C19.5616 19.752 19.2061 20.1075 19.2061 20.5461C19.2061 20.9846 19.5616 21.3402 20.0002 21.3402Z" fill="white"/>
<path d="M29.0001 22.0542V19.0396L26.6153 18.6421C26.4729 18.1465 26.275 17.6693 26.0241 17.2168L27.4299 15.2487L25.2983 13.1171L23.3302 14.5229C22.8777 14.2721 22.4005 14.0741 21.9049 13.9317L21.5074 11.5469H18.4928L18.0953 13.9317C17.5997 14.0741 17.1225 14.2721 16.6701 14.5229L14.702 13.1171L12.5703 15.2487L13.9761 17.2168C13.7253 17.6693 13.5274 18.1465 13.3849 18.6421L11.0001 19.0396V22.0542L13.3849 22.4517C13.5274 22.9473 13.7253 23.4245 13.9761 23.8769L12.5703 25.845L14.702 27.9767L16.6701 26.5709C17.1226 26.8217 17.5997 27.0196 18.0953 27.1621L18.4928 29.5469H21.5074L21.9049 27.1621C22.4005 27.0196 22.8777 26.8217 23.3302 26.5709L25.2983 27.9767L27.4299 25.845L26.0241 23.8769C26.2749 23.4245 26.4729 22.9473 26.6153 22.4517L29.0001 22.0542ZM20.0001 25.0469C17.5188 25.0469 15.5001 23.0282 15.5001 20.5469C15.5001 18.0656 17.5188 16.0469 20.0001 16.0469C22.4814 16.0469 24.5001 18.0656 24.5001 20.5469C24.5001 23.0282 22.4814 25.0469 20.0001 25.0469Z" fill="white"/>
</g>
</g>
<defs>
<clipPath id="clip0_0_1">
<rect width="1440" height="4297" fill="white" transform="translate(-441 -3661)"/>
</clipPath>
<clipPath id="clip1_0_1">
<rect width="18" height="18" fill="white" transform="translate(11.0001 11.5469)"/>
</clipPath>
</defs>
</svg>
