<svg width="38" height="33" viewBox="0 0 38 33" fill="none" xmlns="http://www.w3.org/2000/svg">
<path d="M9.37516 30.9173C9.95046 30.9173 10.4168 30.451 10.4168 29.8757C10.4168 29.3004 9.95046 28.834 9.37516 28.834C8.79987 28.834 8.3335 29.3004 8.3335 29.8757C8.3335 30.451 8.79987 30.9173 9.37516 30.9173Z" stroke="#002646" stroke-width="2" stroke-linecap="round" stroke-linejoin="round"/>
<path d="M20.8334 30.9173C21.4087 30.9173 21.8751 30.451 21.8751 29.8757C21.8751 29.3004 21.4087 28.834 20.8334 28.834C20.2581 28.834 19.7917 29.3004 19.7917 29.8757C19.7917 30.451 20.2581 30.9173 20.8334 30.9173Z" stroke="#002646" stroke-width="2" stroke-linecap="round" stroke-linejoin="round"/>
<path d="M1.04175 9.04199H5.20841L8.00008 22.9899C8.09533 23.4695 8.35623 23.9003 8.73711 24.2069C9.11798 24.5135 9.59456 24.6764 10.0834 24.667H20.2084C20.6973 24.6764 21.1738 24.5135 21.5547 24.2069C21.9356 23.9003 22.1965 23.4695 22.2917 22.9899L23.9584 14.2503H6.25008" stroke="#002646" stroke-width="2" stroke-linecap="round" stroke-linejoin="round"/>
<circle cx="28.0002" cy="9.99994" r="9.43256" fill="#ED1B24"/>
<path d="M29.0842 14.4414H27.6662V7.5918L25.5744 8.30664V7.10547L28.9025 5.88086H29.0842V14.4414Z" fill="white"/>
</svg>
