<svg width="25" height="25" viewBox="0 0 25 25" fill="none" xmlns="http://www.w3.org/2000/svg">
<g opacity="0.5">
<path d="M22.8186 19.5997L19.7994 22.5947C19.3537 23.0518 18.763 23.2066 18.1877 23.2073C15.6434 23.1311 13.2386 21.8813 11.264 20.598C8.02294 18.2401 5.0491 15.3165 3.18266 11.7833C2.46681 10.3018 1.62687 8.41138 1.70712 6.75768C1.71428 6.13559 1.88192 5.52505 2.32003 5.12407L5.33921 2.10642C5.96615 1.57315 6.57244 1.75753 6.97364 2.37868L9.40258 6.98458C9.65823 7.53024 9.51157 8.11488 9.13015 8.50479L8.01782 9.61655C7.94915 9.71061 7.90543 9.81768 7.90432 9.93421C8.33086 11.5853 9.62305 13.1071 10.7646 14.1544C11.9061 15.2017 13.1331 16.6205 14.7258 16.9564C14.9227 17.0114 15.1638 17.0307 15.3047 16.8997L16.5986 15.5838C17.0447 15.2457 17.6887 15.0804 18.1649 15.3569H18.1876L22.5688 17.9434C23.212 18.3466 23.2791 19.1257 22.8186 19.5997Z" fill="white"/>
</g>
</svg>
