<svg width="40" height="41" viewBox="0 0 40 41" fill="none" xmlns="http://www.w3.org/2000/svg">
<rect width="40" height="41" fill="#E5E5E5"/>
<g clip-path="url(#clip0_0_1)">
<rect width="1440" height="4297" transform="translate(-150 -3661)" fill="white"/>
<rect x="-150" y="-24.4531" width="1440" height="662.56" fill="#002646"/>
<circle opacity="0.1" cx="20" cy="20.5469" r="20" fill="white"/>
<path d="M14.6614 17.3594H13.2551C12.9639 17.3594 12.7278 17.5824 12.7278 17.8574C12.7278 18.1325 12.9639 18.3555 13.2551 18.3555H14.6614C14.9526 18.3555 15.1887 18.1325 15.1887 17.8574C15.1887 17.5824 14.9526 17.3594 14.6614 17.3594Z" fill="white"/>
<path d="M14.6614 21.6094H12.1301C11.8389 21.6094 11.6028 21.8324 11.6028 22.1074C11.6028 22.3825 11.8389 22.6055 12.1301 22.6055H14.6614C14.9526 22.6055 15.1887 22.3825 15.1887 22.1074C15.1887 21.8324 14.9526 21.6094 14.6614 21.6094Z" fill="white"/>
<path d="M14.6614 19.4844H12.6926C12.4014 19.4844 12.1653 19.7074 12.1653 19.9824C12.1653 20.2575 12.4014 20.4805 12.6926 20.4805H14.6614C14.9526 20.4805 15.1887 20.2575 15.1887 19.9824C15.1887 19.7074 14.9526 19.4844 14.6614 19.4844Z" fill="white"/>
<path d="M14.6613 23.7344H11.5273C11.2361 23.7344 11 23.9574 11 24.2324C11 24.5075 11.2361 24.7305 11.5273 24.7305H14.6613C14.9526 24.7305 15.1887 24.5075 15.1887 24.2324C15.1887 23.9574 14.9526 23.7344 14.6613 23.7344Z" fill="white"/>
<path d="M23.0491 22.1777C20.4499 22.1777 18.9765 25.0928 20.7295 26.9879C22.3169 28.7139 25.3186 28.0969 25.9976 25.9098C26.592 24.0787 25.1154 22.1777 23.0491 22.1777V22.1777Z" fill="white"/>
<path d="M22.5906 15.7656H21.5159C21.4583 15.7656 21.2558 15.9403 21.2055 16.3463L20.8785 18.996H23.1247L22.9064 16.3975C22.8698 15.9625 22.6518 15.7656 22.5906 15.7656V15.7656Z" fill="white"/>
<path d="M27.8008 19.4744L26.7725 19.4598C26.6927 19.4588 26.6255 19.404 26.6122 19.33L25.7132 14.2632C25.5948 13.5945 24.9876 13.1094 24.2701 13.1094H19.6709C18.9499 13.1094 18.3424 13.5971 18.2263 14.2695L16.5178 24.1849C16.3962 24.8876 16.9702 25.5273 17.7257 25.5273H18.946C18.6625 23.217 20.5865 21.1814 23.0491 21.1814C25.5117 21.1814 27.4361 23.217 27.1525 25.5273H27.7818C28.4537 25.5273 29 25.0114 29 24.3769V20.6246C29 20.0004 28.4621 19.4844 27.8008 19.4744V19.4744ZM23.6956 19.9921H20.2865C19.9685 19.9921 19.7261 19.73 19.7627 19.4366L20.1578 16.2311C20.264 15.3705 20.8226 14.7695 21.5159 14.7695H22.5907C23.3075 14.7695 23.8823 15.421 23.9575 16.3185L24.2212 19.4548C24.2453 19.7428 24.005 19.9921 23.6956 19.9921V19.9921Z" fill="white"/>
</g>
<defs>
<clipPath id="clip0_0_1">
<rect width="1440" height="4297" fill="white" transform="translate(-150 -3661)"/>
</clipPath>
</defs>
</svg>
