<svg width="36" height="37" viewBox="0 0 36 37" fill="none" xmlns="http://www.w3.org/2000/svg">
<rect x="0.0307617" y="0.644531" width="35.4684" height="35.4684" rx="17.7342" fill="#FF0000"/>
<path d="M26.3113 14.2697C26.2097 13.9088 26.0109 13.5798 25.7346 13.3156C25.4584 13.0513 25.1144 12.8611 24.7371 12.764C23.3477 12.4043 17.7648 12.4043 17.7648 12.4043C17.7648 12.4043 12.1818 12.4043 10.7925 12.764C10.4152 12.8611 10.0712 13.0513 9.79497 13.3156C9.5187 13.5798 9.31985 13.9088 9.2183 14.2697C8.95887 15.625 8.83298 17.0007 8.84228 18.3785C8.83298 19.7563 8.95887 21.132 9.2183 22.4873C9.31985 22.8482 9.5187 23.1772 9.79497 23.4414C10.0712 23.7057 10.4152 23.8959 10.7925 23.993C12.1818 24.3527 17.7648 24.3527 17.7648 24.3527C17.7648 24.3527 23.3477 24.3527 24.7371 23.993C25.1144 23.8959 25.4584 23.7057 25.7346 23.4414C26.0109 23.1772 26.2097 22.8482 26.3113 22.4873C26.5707 21.132 26.6966 19.7563 26.6873 18.3785C26.6966 17.0007 26.5707 15.625 26.3113 14.2697ZM15.9803 20.9389V15.8181L20.6136 18.3785L15.9803 20.9389Z" fill="white"/>
</svg>
